<?xml version="1.0" encoding="utf-8"?>
<!-- Generator: Adobe Illustrator 16.0.4, SVG Export Plug-In . SVG Version: 6.00 Build 0)  -->
<!DOCTYPE svg PUBLIC "-//W3C//DTD SVG 1.1//EN" "http://www.w3.org/Graphics/SVG/1.1/DTD/svg11.dtd">
<svg version="1.1" xmlns="http://www.w3.org/2000/svg" xmlns:xlink="http://www.w3.org/1999/xlink" x="0px" y="0px" width="350px"
	 height="346px" viewBox="0 0 350 346" enable-background="new 0 0 350 346" xml:space="preserve">
<g id="Layer_10">
	<g>
		<path fill="#FFFFFF" d="M276.594,310.047c0-4.063-21.985-7.357-49.104-7.357c-17.153,0-32.244,1.319-41.025,3.316
			c-2.723-0.049-5.487-0.076-8.296-0.076c-3.223,0-6.389,0.036-9.496,0.099c-8.766-2.011-23.905-3.339-41.124-3.339
			c-27.119,0-49.104,3.294-49.104,7.357c0,2.989,11.898,5.56,28.978,6.712c0.789,5.756,32.149,10.385,70.746,10.385
			c38.8,0,70.291-4.679,70.762-10.477C265.305,315.475,276.594,312.959,276.594,310.047z"/>
		<path fill="#FEFEFE" d="M276.317,310.057c0-4.052-21.924-7.337-48.968-7.337c-17.105,0-32.153,1.316-40.911,3.308
			c-2.715-0.049-5.472-0.076-8.273-0.076c-3.213,0-6.37,0.036-9.469,0.099c-8.742-2.005-23.838-3.33-41.008-3.33
			c-27.043,0-48.967,3.285-48.967,7.337c0,2.981,11.86,5.529,28.882,6.699c0.793,5.736,32.073,10.35,70.562,10.35
			c38.692,0,70.087-4.669,70.564-10.447C265.051,315.449,276.317,312.961,276.317,310.057z"/>
		<path fill="#FDFDFD" d="M276.039,310.066c0-4.041-21.862-7.316-48.829-7.316c-17.058,0-32.063,1.312-40.796,3.298
			c-2.708-0.049-5.457-0.076-8.25-0.076c-3.205,0-6.353,0.036-9.443,0.099c-8.717-2-23.771-3.32-40.894-3.32
			c-26.967,0-48.829,3.275-48.829,7.316c0,2.973,11.821,5.499,28.787,6.687c0.798,5.717,31.998,10.313,70.379,10.313
			c38.583,0,69.883-4.658,70.366-10.417C264.795,315.423,276.039,312.962,276.039,310.066z"/>
		<path fill="#FCFCFC" d="M275.762,310.075c0-4.029-21.801-7.295-48.692-7.295c-17.01,0-31.973,1.308-40.681,3.288
			c-2.7-0.048-5.441-0.075-8.227-0.075c-3.196,0-6.335,0.036-9.416,0.098c-8.693-1.994-23.704-3.311-40.778-3.311
			c-26.891,0-48.692,3.266-48.692,7.295c0,2.964,11.783,5.47,28.692,6.674c0.802,5.697,31.921,10.28,70.194,10.28
			c38.474,0,69.679-4.65,70.168-10.39C264.539,315.397,275.762,312.963,275.762,310.075z"/>
		<path fill="#FBFBFB" d="M275.484,310.086c0-4.019-21.739-7.275-48.555-7.275c-16.961,0-31.883,1.305-40.566,3.279
			c-2.693-0.049-5.426-0.075-8.203-0.075c-3.187,0-6.317,0.036-9.39,0.098c-8.668-1.988-23.637-3.302-40.663-3.302
			c-26.815,0-48.554,3.257-48.554,7.275c0,2.955,11.744,5.438,28.596,6.66c0.807,5.677,31.846,10.245,70.011,10.245
			c38.366,0,69.474-4.641,69.969-10.359C264.285,315.371,275.484,312.965,275.484,310.086z"/>
		<path fill="#FAFAFA" d="M275.207,310.096c0-4.007-21.678-7.255-48.417-7.255c-16.913,0-31.793,1.301-40.451,3.271
			c-2.685-0.048-5.411-0.075-8.18-0.075c-3.178,0-6.299,0.035-9.363,0.097c-8.644-1.982-23.57-3.292-40.548-3.292
			c-26.739,0-48.417,3.248-48.417,7.255c0,2.947,11.705,5.408,28.5,6.647c0.812,5.657,31.771,10.21,69.827,10.21
			c38.257,0,69.271-4.63,69.772-10.33C264.029,315.346,275.207,312.967,275.207,310.096z"/>
		<path fill="#F9F9F9" d="M274.93,310.104c0-3.995-21.616-7.233-48.279-7.233c-16.866,0-31.703,1.297-40.337,3.261
			c-2.677-0.048-5.395-0.075-8.157-0.075c-3.168,0-6.281,0.036-9.336,0.098c-8.619-1.978-23.503-3.283-40.433-3.283
			c-26.663,0-48.279,3.238-48.279,7.233c0,2.939,11.667,5.379,28.406,6.635c0.815,5.639,31.694,10.176,69.643,10.176
			c38.148,0,69.067-4.621,69.574-10.301C263.774,315.319,274.93,312.969,274.93,310.104z"/>
		<path fill="#F8F8F8" d="M274.652,310.114c0-3.983-21.555-7.213-48.143-7.213c-16.817,0-31.612,1.293-40.222,3.251
			c-2.67-0.048-5.379-0.074-8.133-0.074c-3.16,0-6.264,0.035-9.31,0.097c-8.595-1.972-23.437-3.273-40.318-3.273
			c-26.587,0-48.142,3.229-48.142,7.213c0,2.931,11.628,5.348,28.31,6.622c0.82,5.619,31.618,10.14,69.459,10.14
			c38.04,0,68.863-4.61,69.375-10.271C263.52,315.293,274.652,312.97,274.652,310.114z"/>
		<path fill="#F7F7F7" d="M274.375,310.124c0-3.973-21.493-7.192-48.005-7.192c-16.769,0-31.522,1.29-40.106,3.242
			c-2.663-0.048-5.365-0.074-8.111-0.074c-3.15,0-6.245,0.035-9.283,0.097c-8.57-1.966-23.37-3.265-40.203-3.265
			c-26.511,0-48.004,3.22-48.004,7.192c0,2.923,11.589,5.317,28.214,6.609c0.825,5.599,31.542,10.104,69.275,10.104
			c37.931,0,68.659-4.601,69.177-10.242C263.265,315.268,274.375,312.971,274.375,310.124z"/>
		<path fill="#F6F6F6" d="M274.098,310.134c0-3.961-21.432-7.172-47.867-7.172c-16.722,0-31.432,1.286-39.992,3.233
			c-2.654-0.048-5.349-0.074-8.087-0.074c-3.142,0-6.228,0.035-9.257,0.096c-8.545-1.96-23.302-3.255-40.087-3.255
			c-26.436,0-47.867,3.211-47.867,7.172c0,2.915,11.551,5.287,28.119,6.597c0.83,5.579,31.467,10.07,69.092,10.07
			c37.822,0,68.454-4.592,68.979-10.213C263.01,315.242,274.098,312.973,274.098,310.134z"/>
		<path fill="#F5F5F5" d="M273.82,310.144c0-3.949-21.37-7.151-47.73-7.151c-16.673,0-31.341,1.282-39.876,3.224
			c-2.647-0.047-5.333-0.074-8.064-0.074c-3.133,0-6.21,0.035-9.23,0.097c-8.521-1.955-23.235-3.246-39.972-3.246
			c-26.359,0-47.729,3.202-47.729,7.151c0,2.905,11.512,5.257,28.023,6.583c0.834,5.561,31.392,10.035,68.908,10.035
			c37.714,0,68.251-4.581,68.781-10.184C262.755,315.216,273.82,312.975,273.82,310.144z"/>
		<path fill="#F4F4F4" d="M273.542,310.153c0-3.938-21.308-7.131-47.592-7.131c-16.625,0-31.251,1.278-39.762,3.214
			c-2.639-0.047-5.318-0.073-8.041-0.073c-3.123,0-6.191,0.034-9.204,0.095c-8.496-1.948-23.168-3.235-39.857-3.235
			c-26.284,0-47.591,3.192-47.591,7.131c0,2.897,11.473,5.227,27.928,6.57c0.839,5.54,31.316,9.999,68.724,9.999
			c37.606,0,68.047-4.571,68.583-10.153C262.499,315.189,273.542,312.976,273.542,310.153z"/>
		<path fill="#F3F3F3" d="M273.266,310.163c0-3.927-21.247-7.11-47.455-7.11c-16.577,0-31.161,1.275-39.647,3.205
			c-2.632-0.047-5.303-0.073-8.018-0.073c-3.115,0-6.174,0.035-9.177,0.095c-8.472-1.942-23.102-3.227-39.742-3.227
			c-26.208,0-47.454,3.184-47.454,7.11c0,2.889,11.435,5.196,27.833,6.558c0.843,5.521,31.24,9.965,68.541,9.965
			c37.497,0,67.842-4.562,68.384-10.125C262.244,315.164,273.266,312.978,273.266,310.163z"/>
		<path fill="#F2F2F2" d="M272.988,310.173c0-3.915-21.186-7.09-47.317-7.09c-16.529,0-31.071,1.271-39.533,3.196
			c-2.624-0.048-5.287-0.073-7.994-0.073c-3.105,0-6.156,0.034-9.15,0.095c-8.447-1.938-23.035-3.218-39.627-3.218
			c-26.132,0-47.316,3.175-47.316,7.09c0,2.881,11.396,5.166,27.737,6.545c0.848,5.501,31.164,9.93,68.356,9.93
			c37.388,0,67.639-4.552,68.187-10.096C261.989,315.139,272.988,312.979,272.988,310.173z"/>
		<path fill="#F1F1F1" d="M272.711,310.183c0-3.904-21.124-7.069-47.181-7.069c-16.48,0-30.979,1.268-39.417,3.187
			c-2.616-0.047-5.272-0.073-7.971-0.073c-3.096,0-6.138,0.035-9.124,0.095c-8.422-1.932-22.967-3.208-39.511-3.208
			c-26.056,0-47.18,3.165-47.18,7.069c0,2.872,11.358,5.136,27.642,6.532c0.853,5.48,31.088,9.894,68.173,9.894
			c37.28,0,67.435-4.542,67.989-10.065C261.734,315.112,272.711,312.98,272.711,310.183z"/>
		<path fill="#F0F0F0" d="M272.433,310.191c0-3.893-21.062-7.048-47.042-7.048c-16.434,0-30.891,1.264-39.303,3.177
			c-2.608-0.047-5.257-0.073-7.948-0.073c-3.087,0-6.12,0.035-9.098,0.095c-8.398-1.926-22.9-3.198-39.396-3.198
			c-25.98,0-47.042,3.155-47.042,7.048c0,2.864,11.319,5.105,27.547,6.52c0.857,5.461,31.012,9.859,67.989,9.859
			c37.17,0,67.231-4.532,67.791-10.036C261.479,315.086,272.433,312.981,272.433,310.191z"/>
		<path fill="#EFEFEF" d="M272.156,310.202c0-3.882-21.001-7.028-46.905-7.028c-16.385,0-30.8,1.261-39.188,3.168
			c-2.602-0.047-5.242-0.073-7.925-0.073c-3.078,0-6.103,0.035-9.071,0.095c-8.373-1.921-22.833-3.189-39.281-3.189
			c-25.904,0-46.905,3.146-46.905,7.028c0,2.854,11.281,5.074,27.452,6.506c0.862,5.441,30.937,9.824,67.805,9.824
			c37.062,0,67.027-4.522,67.592-10.007C261.224,315.061,272.156,312.983,272.156,310.202z"/>
		<path fill="#EEEEEE" d="M271.878,310.212c0-3.87-20.938-7.008-46.767-7.008c-16.337,0-30.709,1.257-39.073,3.159
			c-2.593-0.047-5.226-0.073-7.901-0.073c-3.069,0-6.084,0.035-9.044,0.095c-8.349-1.915-22.767-3.181-39.166-3.181
			c-25.828,0-46.768,3.138-46.768,7.008c0,2.847,11.243,5.045,27.356,6.493c0.867,5.423,30.861,9.789,67.621,9.789
			c36.953,0,66.823-4.512,67.395-9.978C260.97,315.035,271.878,312.985,271.878,310.212z"/>
		<path fill="#EDEDED" d="M271.601,310.221c0-3.858-20.877-6.986-46.63-6.986c-16.289,0-30.619,1.253-38.958,3.149
			c-2.586-0.047-5.211-0.072-7.878-0.072c-3.06,0-6.066,0.034-9.018,0.094c-8.324-1.91-22.7-3.171-39.051-3.171
			c-25.752,0-46.63,3.128-46.63,6.986c0,2.839,11.204,5.015,27.261,6.481c0.871,5.402,30.785,9.754,67.437,9.754
			c36.845,0,66.619-4.503,67.196-9.948C260.714,315.009,271.601,312.986,271.601,310.221z"/>
		<path fill="#ECECEC" d="M271.323,310.23c0-3.847-20.815-6.966-46.492-6.966c-16.241,0-30.529,1.249-38.843,3.14
			c-2.578-0.046-5.195-0.071-7.855-0.071c-3.051,0-6.049,0.033-8.991,0.093c-8.3-1.903-22.633-3.161-38.936-3.161
			c-25.676,0-46.492,3.119-46.492,6.966c0,2.83,11.165,4.984,27.165,6.468c0.876,5.383,30.71,9.72,67.254,9.72
			c36.736,0,66.415-4.493,66.998-9.92C260.459,314.982,271.323,312.987,271.323,310.23z"/>
		<path fill="#EBEBEB" d="M271.046,310.24c0-3.836-20.754-6.945-46.354-6.945c-16.193,0-30.439,1.245-38.729,3.131
			c-2.571-0.046-5.18-0.071-7.832-0.071c-3.042,0-6.031,0.033-8.965,0.093c-8.275-1.898-22.566-3.152-38.82-3.152
			c-25.601,0-46.355,3.109-46.355,6.945c0,2.822,11.127,4.954,27.07,6.455c0.881,5.363,30.634,9.685,67.07,9.685
			c36.627,0,66.21-4.483,66.799-9.89C260.204,314.957,271.046,312.99,271.046,310.24z"/>
		<path fill="#EAEAEA" d="M270.769,310.25c0-3.824-20.692-6.924-46.217-6.924c-16.145,0-30.349,1.241-38.614,3.121
			c-2.563-0.046-5.165-0.072-7.809-0.072c-3.033,0-6.013,0.034-8.938,0.093c-8.251-1.892-22.499-3.142-38.706-3.142
			c-25.524,0-46.217,3.1-46.217,6.924c0,2.813,11.087,4.924,26.975,6.442c0.885,5.344,30.558,9.649,66.886,9.649
			c36.519,0,66.007-4.474,66.602-9.86C259.949,314.932,270.769,312.991,270.769,310.25z"/>
		<path fill="#E9E9E9" d="M270.491,310.26c0-3.812-20.631-6.904-46.08-6.904c-16.097,0-30.258,1.238-38.498,3.112
			c-2.556-0.046-5.149-0.071-7.786-0.071c-3.024,0-5.995,0.033-8.911,0.092c-8.226-1.887-22.432-3.133-38.59-3.133
			c-25.449,0-46.08,3.092-46.08,6.904c0,2.806,11.049,4.894,26.879,6.43c0.889,5.324,30.482,9.614,66.702,9.614
			c36.411,0,65.803-4.464,66.404-9.831C259.694,314.905,270.491,312.992,270.491,310.26z"/>
		<path fill="#E8E8E8" d="M270.214,310.27c0-3.802-20.569-6.884-45.942-6.884c-16.049,0-30.168,1.234-38.384,3.103
			c-2.548-0.045-5.134-0.071-7.762-0.071c-3.015,0-5.978,0.034-8.885,0.093c-8.202-1.882-22.365-3.124-38.475-3.124
			c-25.373,0-45.942,3.082-45.942,6.884c0,2.797,11.011,4.863,26.784,6.416c0.894,5.305,30.407,9.58,66.519,9.58
			c36.301,0,65.599-4.455,66.206-9.803C259.438,314.88,270.214,312.994,270.214,310.27z"/>
		<path fill="#E7E7E7" d="M269.937,310.279c0-3.791-20.508-6.863-45.805-6.863c-16.001,0-30.077,1.23-38.269,3.094
			c-2.541-0.046-5.119-0.071-7.739-0.071c-3.006,0-5.959,0.034-8.858,0.093c-8.177-1.876-22.298-3.115-38.36-3.115
			c-25.296,0-45.804,3.072-45.804,6.863c0,2.788,10.972,4.833,26.688,6.403c0.898,5.285,30.331,9.545,66.334,9.545
			c36.192,0,65.395-4.444,66.008-9.772C259.184,314.854,269.937,312.996,269.937,310.279z"/>
		<path fill="#E6E6E6" d="M269.659,310.289c0-3.779-20.446-6.842-45.667-6.842c-15.953,0-29.988,1.227-38.154,3.084
			c-2.533-0.046-5.103-0.071-7.716-0.071c-2.997,0-5.941,0.034-8.831,0.092c-8.153-1.87-22.232-3.104-38.245-3.104
			c-25.221,0-45.667,3.062-45.667,6.842c0,2.78,10.933,4.803,26.593,6.391c0.903,5.266,30.255,9.51,66.15,9.51
			c36.085,0,65.191-4.436,65.81-9.743C258.929,314.828,269.659,312.998,269.659,310.289z"/>
		<path fill="#E5E5E5" d="M269.382,310.299c0-3.768-20.386-6.822-45.53-6.822c-15.904,0-29.897,1.224-38.039,3.075
			c-2.525-0.045-5.088-0.071-7.693-0.071c-2.988,0-5.924,0.034-8.805,0.092c-8.128-1.864-22.165-3.096-38.13-3.096
			c-25.145,0-45.529,3.055-45.529,6.822c0,2.771,10.894,4.772,26.497,6.378c0.908,5.245,30.18,9.474,65.967,9.474
			c35.976,0,64.987-4.425,65.611-9.714C258.674,314.802,269.382,312.999,269.382,310.299z"/>
		<path fill="#E4E4E4" d="M269.104,310.308c0-3.756-20.323-6.801-45.392-6.801c-15.856,0-29.807,1.22-37.925,3.065
			c-2.517-0.045-5.072-0.07-7.669-0.07c-2.979,0-5.906,0.033-8.778,0.091c-8.104-1.858-22.098-3.086-38.015-3.086
			c-25.069,0-45.392,3.045-45.392,6.801c0,2.764,10.856,4.742,26.402,6.365c0.912,5.226,30.104,9.439,65.783,9.439
			c35.867,0,64.783-4.415,65.413-9.685C258.418,314.776,269.104,313,269.104,310.308z"/>
		<path fill="#E3E3E3" d="M268.827,310.318c0-3.746-20.263-6.781-45.256-6.781c-15.808,0-29.716,1.216-37.809,3.057
			c-2.51-0.045-5.057-0.07-7.646-0.07c-2.97,0-5.888,0.033-8.752,0.091c-8.079-1.853-22.03-3.077-37.9-3.077
			c-24.993,0-45.254,3.035-45.254,6.781c0,2.755,10.817,4.711,26.307,6.352c0.917,5.206,30.028,9.404,65.599,9.404
			c35.758,0,64.58-4.405,65.215-9.655C258.164,314.75,268.827,313.002,268.827,310.318z"/>
		<path fill="#E2E2E2" d="M268.55,310.328c0-3.733-20.2-6.761-45.117-6.761c-15.761,0-29.626,1.213-37.695,3.048
			c-2.502-0.045-5.042-0.07-7.623-0.07c-2.961,0-5.87,0.033-8.726,0.091c-8.054-1.848-21.963-3.068-37.784-3.068
			c-24.917,0-45.117,3.027-45.117,6.761c0,2.746,10.779,4.681,26.212,6.339c0.921,5.187,29.951,9.369,65.415,9.369
			c35.649,0,64.375-4.396,65.017-9.626C257.908,314.725,268.55,313.004,268.55,310.328z"/>
		<path fill="#E1E1E1" d="M268.272,310.337c0-3.722-20.14-6.739-44.98-6.739c-15.712,0-29.536,1.209-37.579,3.038
			c-2.495-0.045-5.027-0.069-7.6-0.069c-2.952,0-5.853,0.032-8.699,0.09c-8.029-1.842-21.896-3.059-37.669-3.059
			c-24.841,0-44.979,3.018-44.979,6.739c0,2.739,10.74,4.651,26.116,6.327c0.925,5.167,29.876,9.334,65.231,9.334
			c35.541,0,64.171-4.386,64.818-9.597C257.653,314.698,268.272,313.005,268.272,310.337z"/>
		<path fill="#E0E0E0" d="M267.994,310.347c0-3.711-20.077-6.719-44.842-6.719c-15.665,0-29.446,1.204-37.465,3.028
			c-2.486-0.045-5.011-0.069-7.576-0.069c-2.943,0-5.834,0.033-8.672,0.09c-8.005-1.836-21.83-3.049-37.554-3.049
			c-24.765,0-44.842,3.008-44.842,6.719c0,2.729,10.701,4.621,26.02,6.313c0.931,5.147,29.801,9.299,65.048,9.299
			c35.432,0,63.967-4.375,64.621-9.566C257.398,314.673,267.994,313.006,267.994,310.347z"/>
		<path fill="#DFDFDF" d="M267.717,310.357c0-3.7-20.016-6.699-44.705-6.699c-15.616,0-29.355,1.201-37.349,3.02
			c-2.479-0.045-4.996-0.069-7.553-0.069c-2.934,0-5.816,0.032-8.646,0.09c-7.98-1.831-21.763-3.04-37.439-3.04
			c-24.689,0-44.705,2.999-44.705,6.699c0,2.721,10.663,4.59,25.925,6.3c0.935,5.128,29.725,9.265,64.864,9.265
			c35.324,0,63.763-4.367,64.422-9.538C257.144,314.647,267.717,313.008,267.717,310.357z"/>
		<path fill="#DEDEDE" d="M267.439,310.366c0-3.688-19.953-6.677-44.567-6.677c-15.567,0-29.265,1.196-37.234,3.01
			c-2.472-0.045-4.98-0.069-7.53-0.069c-2.925,0-5.798,0.033-8.619,0.09c-7.956-1.825-21.696-3.03-37.324-3.03
			c-24.613,0-44.567,2.989-44.567,6.677c0,2.713,10.624,4.561,25.83,6.288c0.939,5.108,29.649,9.229,64.68,9.229
			c35.216,0,63.56-4.356,64.225-9.509C256.889,314.621,267.439,313.01,267.439,310.366z"/>
		<path fill="#DDDDDD" d="M267.162,310.376c0-3.677-19.892-6.657-44.43-6.657c-15.521,0-29.175,1.194-37.12,3.001
			c-2.464-0.044-4.965-0.069-7.506-0.069c-2.917,0-5.781,0.033-8.592,0.09c-7.932-1.819-21.629-3.021-37.209-3.021
			c-24.537,0-44.43,2.98-44.43,6.657c0,2.705,10.586,4.53,25.734,6.274c0.944,5.089,29.574,9.194,64.497,9.194
			c35.107,0,63.355-4.347,64.026-9.479C256.633,314.595,267.162,313.011,267.162,310.376z"/>
		<path fill="#DCDCDC" d="M266.885,310.386c0-3.665-19.831-6.637-44.293-6.637c-15.472,0-29.084,1.19-37.005,2.991
			c-2.456-0.044-4.95-0.068-7.483-0.068c-2.907,0-5.762,0.032-8.565,0.089c-7.907-1.813-21.562-3.012-37.094-3.012
			c-24.461,0-44.292,2.972-44.292,6.637c0,2.696,10.547,4.499,25.64,6.262c0.948,5.069,29.497,9.159,64.312,9.159
			c34.998,0,63.151-4.337,63.828-9.45C256.378,314.569,266.885,313.013,266.885,310.386z"/>
		<path fill="#DBDBDB" d="M266.607,310.396c0-3.654-19.769-6.616-44.154-6.616c-15.425,0-28.995,1.187-36.891,2.982
			c-2.449-0.044-4.935-0.068-7.46-0.068c-2.898,0-5.745,0.032-8.539,0.088c-7.882-1.808-21.495-3.002-36.979-3.002
			c-24.385,0-44.155,2.962-44.155,6.616c0,2.688,10.509,4.469,25.544,6.249c0.953,5.05,29.421,9.124,64.128,9.124
			c34.889,0,62.948-4.327,63.629-9.421C256.123,314.544,266.607,313.014,266.607,310.396z"/>
		<path fill="#DADADA" d="M266.331,310.405c0-3.643-19.708-6.595-44.019-6.595c-15.376,0-28.903,1.183-36.775,2.973
			c-2.44-0.044-4.919-0.068-7.437-0.068c-2.889,0-5.727,0.032-8.513,0.088c-7.858-1.802-21.428-2.992-36.863-2.992
			c-24.31,0-44.017,2.952-44.017,6.595c0,2.68,10.47,4.439,25.448,6.236c0.958,5.03,29.346,9.089,63.945,9.089
			c34.78,0,62.743-4.317,63.432-9.391C255.868,314.518,266.331,313.016,266.331,310.405z"/>
		<path fill="#D9D9D9" d="M266.053,310.415c0-3.631-19.646-6.575-43.88-6.575c-15.328,0-28.813,1.179-36.661,2.964
			c-2.434-0.044-4.904-0.068-7.414-0.068c-2.88,0-5.709,0.032-8.486,0.089c-7.833-1.797-21.361-2.984-36.748-2.984
			c-24.233,0-43.88,2.944-43.88,6.575c0,2.671,10.432,4.408,25.354,6.224c0.962,5.01,29.27,9.054,63.761,9.054
			c34.673,0,62.539-4.308,63.233-9.362C255.613,314.492,266.053,313.017,266.053,310.415z"/>
		<path fill="#D8D8D8" d="M265.775,310.424c0-3.619-19.585-6.554-43.742-6.554c-15.281,0-28.724,1.175-36.546,2.954
			c-2.426-0.043-4.888-0.067-7.39-0.067c-2.871,0-5.691,0.032-8.46,0.088c-7.809-1.792-21.294-2.975-36.633-2.975
			c-24.158,0-43.742,2.935-43.742,6.554c0,2.663,10.393,4.379,25.258,6.211c0.967,4.99,29.194,9.02,63.577,9.02
			c34.563,0,62.335-4.299,63.035-9.333C255.357,314.466,265.775,313.019,265.775,310.424z"/>
		<path fill="#D7D7D7" d="M265.498,310.434c0-3.608-19.523-6.533-43.605-6.533c-15.231,0-28.633,1.172-36.43,2.945
			c-2.418-0.044-4.874-0.067-7.368-0.067c-2.862,0-5.673,0.032-8.433,0.087c-7.784-1.785-21.228-2.965-36.518-2.965
			c-24.082,0-43.604,2.925-43.604,6.533c0,2.655,10.354,4.349,25.162,6.198c0.972,4.971,29.119,8.984,63.394,8.984
			c34.455,0,62.132-4.288,62.838-9.304C255.104,314.44,265.498,313.021,265.498,310.434z"/>
		<path fill="#D6D6D6" d="M265.221,310.444c0-3.598-19.461-6.514-43.467-6.514c-15.185,0-28.543,1.168-36.317,2.937
			c-2.411-0.044-4.857-0.067-7.344-0.067c-2.853,0-5.655,0.031-8.406,0.087c-7.76-1.78-21.16-2.956-36.403-2.956
			c-24.006,0-43.467,2.916-43.467,6.514c0,2.646,10.316,4.317,25.067,6.185c0.976,4.951,29.043,8.949,63.209,8.949
			c34.347,0,61.928-4.279,62.64-9.273C254.848,314.414,265.221,313.021,265.221,310.444z"/>
		<path fill="#D5D5D5" d="M264.943,310.453c0-3.585-19.4-6.492-43.33-6.492c-15.137,0-28.453,1.165-36.201,2.927
			c-2.403-0.043-4.842-0.067-7.321-0.067c-2.844,0-5.637,0.032-8.38,0.087c-7.735-1.774-21.093-2.946-36.288-2.946
			c-23.93,0-43.33,2.907-43.33,6.492c0,2.638,10.277,4.288,24.971,6.173c0.981,4.932,28.967,8.914,63.026,8.914
			c34.238,0,61.723-4.27,62.441-9.245C254.593,314.389,264.943,313.023,264.943,310.453z"/>
		<path fill="#D4D4D4" d="M264.666,310.463c0-3.574-19.339-6.472-43.193-6.472c-15.088,0-28.362,1.16-36.086,2.917
			c-2.396-0.043-4.827-0.066-7.298-0.066c-2.834,0-5.619,0.031-8.353,0.086c-7.71-1.769-21.026-2.937-36.172-2.937
			c-23.854,0-43.192,2.897-43.192,6.472c0,2.629,10.238,4.258,24.876,6.159c0.986,4.912,28.892,8.88,62.842,8.88
			c34.13,0,61.52-4.26,62.243-9.216C254.338,314.362,264.666,313.024,264.666,310.463z"/>
		<path fill="#D3D3D3" d="M264.389,310.473c0-3.562-19.277-6.451-43.055-6.451c-15.041,0-28.272,1.157-35.972,2.908
			c-2.388-0.043-4.812-0.067-7.274-0.067c-2.826,0-5.602,0.032-8.327,0.087c-7.686-1.763-20.959-2.928-36.057-2.928
			c-23.778,0-43.055,2.889-43.055,6.451c0,2.621,10.2,4.228,24.781,6.146c0.99,4.893,28.815,8.845,62.658,8.845
			c34.021,0,61.315-4.25,62.045-9.187C254.083,314.337,264.389,313.026,264.389,310.473z"/>
		<path fill="#D2D2D2" d="M264.111,310.482c0-3.551-19.215-6.43-42.918-6.43c-14.992,0-28.181,1.152-35.856,2.898
			c-2.38-0.043-4.796-0.066-7.251-0.066c-2.817,0-5.583,0.031-8.3,0.086c-7.662-1.758-20.893-2.918-35.942-2.918
			c-23.702,0-42.917,2.879-42.917,6.43c0,2.613,10.161,4.197,24.685,6.134c0.995,4.873,28.74,8.81,62.474,8.81
			c33.912,0,61.111-4.24,61.847-9.157C253.828,314.311,264.111,313.027,264.111,310.482z"/>
		<path fill="#D1D1D1" d="M263.834,310.492c0-3.54-19.154-6.409-42.78-6.409c-14.944,0-28.092,1.148-35.742,2.889
			c-2.373-0.042-4.781-0.066-7.228-0.066c-2.808,0-5.566,0.031-8.273,0.086c-7.637-1.752-20.826-2.908-35.827-2.908
			c-23.626,0-42.78,2.869-42.78,6.409c0,2.604,10.122,4.167,24.589,6.121c1,4.853,28.664,8.773,62.291,8.773
			c33.804,0,60.907-4.229,61.648-9.127C253.572,314.285,263.834,313.029,263.834,310.492z"/>
		<path fill="#D0D0D0" d="M263.557,310.502c0-3.529-19.093-6.39-42.644-6.39c-14.896,0-28.001,1.146-35.626,2.88
			c-2.365-0.043-4.766-0.065-7.205-0.065c-2.799,0-5.548,0.03-8.247,0.085c-7.612-1.746-20.759-2.899-35.712-2.899
			c-23.55,0-42.643,2.86-42.643,6.39c0,2.596,10.083,4.136,24.495,6.107c1.003,4.834,28.588,8.739,62.106,8.739
			c33.694,0,60.703-4.22,61.45-9.099C253.317,314.259,263.557,313.03,263.557,310.502z"/>
		<path fill="#CFCFCF" d="M263.279,310.512c0-3.518-19.031-6.369-42.506-6.369c-14.848,0-27.911,1.143-35.512,2.871
			c-2.357-0.042-4.75-0.065-7.182-0.065c-2.789,0-5.53,0.031-8.22,0.085c-7.588-1.74-20.692-2.891-35.597-2.891
			c-23.475,0-42.505,2.852-42.505,6.369c0,2.587,10.045,4.105,24.399,6.096c1.008,4.812,28.513,8.703,61.922,8.703
			c33.586,0,60.5-4.211,61.253-9.068C253.062,314.233,263.279,313.032,263.279,310.512z"/>
		<path fill="#CECECE" d="M263.002,310.521c0-3.506-18.969-6.348-42.368-6.348c-14.8,0-27.82,1.138-35.397,2.861
			c-2.349-0.043-4.735-0.065-7.158-0.065c-2.781,0-5.512,0.03-8.193,0.084c-7.563-1.734-20.625-2.88-35.482-2.88
			c-23.398,0-42.368,2.842-42.368,6.348c0,2.579,10.007,4.075,24.304,6.082c1.013,4.794,28.437,8.669,61.739,8.669
			c33.478,0,60.295-4.2,61.054-9.039C252.808,314.207,263.002,313.034,263.002,310.521z"/>
		<path fill="#CDCDCD" d="M262.725,310.531c0-3.495-18.908-6.328-42.23-6.328c-14.752,0-27.73,1.135-35.282,2.853
			c-2.342-0.042-4.72-0.065-7.135-0.065c-2.771,0-5.495,0.031-8.167,0.084c-7.539-1.729-20.559-2.871-35.367-2.871
			c-23.323,0-42.23,2.833-42.23,6.328c0,2.57,9.968,4.045,24.208,6.069c1.018,4.774,28.361,8.634,61.555,8.634
			c33.369,0,60.091-4.19,60.856-9.01C252.553,314.182,262.725,313.035,262.725,310.531z"/>
		<path fill="#CCCCCC" d="M262.446,310.54c0-3.483-18.846-6.307-42.093-6.307c-14.704,0-27.64,1.131-35.167,2.843
			c-2.334-0.041-4.704-0.065-7.112-0.065c-2.763,0-5.477,0.031-8.14,0.085c-7.514-1.724-20.491-2.862-35.251-2.862
			c-23.247,0-42.092,2.823-42.092,6.307c0,2.562,9.929,4.016,24.112,6.057c1.022,4.755,28.285,8.599,61.372,8.599
			c33.26,0,59.887-4.181,60.658-8.98C252.298,314.155,262.446,313.037,262.446,310.54z"/>
		<path fill="#CBCBCB" d="M262.169,310.551c0-3.473-18.784-6.287-41.955-6.287c-14.655,0-27.549,1.127-35.052,2.834
			c-2.327-0.042-4.689-0.065-7.088-0.065c-2.754,0-5.458,0.031-8.114,0.085c-7.49-1.719-20.424-2.854-35.136-2.854
			c-23.171,0-41.955,2.814-41.955,6.287c0,2.554,9.891,3.984,24.018,6.043c1.026,4.735,28.209,8.564,61.188,8.564
			c33.151,0,59.683-4.172,60.46-8.951C252.042,314.13,262.169,313.038,262.169,310.551z"/>
		<path fill="#CACACA" d="M261.893,310.561c0-3.461-18.724-6.266-41.818-6.266c-14.607,0-27.459,1.123-34.938,2.824
			c-2.319-0.042-4.673-0.064-7.065-0.064c-2.744,0-5.44,0.03-8.087,0.083c-7.465-1.712-20.357-2.843-35.021-2.843
			c-23.094,0-41.817,2.805-41.817,6.266c0,2.545,9.853,3.954,23.923,6.031c1.03,4.715,28.133,8.528,61.003,8.528
			c33.043,0,59.479-4.162,60.262-8.922C251.788,314.104,261.893,313.041,261.893,310.561z"/>
		<path fill="#C9C9C9" d="M261.614,310.569c0-3.449-18.661-6.245-41.68-6.245c-14.561,0-27.37,1.12-34.823,2.815
			c-2.312-0.042-4.658-0.064-7.042-0.064c-2.735,0-5.423,0.03-8.061,0.083c-7.44-1.706-20.291-2.834-34.906-2.834
			c-23.019,0-41.68,2.796-41.68,6.245c0,2.538,9.813,3.925,23.827,6.019c1.036,4.696,28.058,8.494,60.82,8.494
			c32.935,0,59.275-4.152,60.063-8.894C251.532,314.078,261.614,313.042,261.614,310.569z"/>
		<path fill="#C8C8C8" d="M261.337,310.579c0-3.438-18.6-6.225-41.543-6.225c-14.512,0-27.279,1.116-34.708,2.806
			c-2.304-0.041-4.643-0.064-7.019-0.064c-2.727,0-5.405,0.031-8.034,0.084c-7.417-1.701-20.224-2.825-34.792-2.825
			c-22.942,0-41.542,2.787-41.542,6.225c0,2.529,9.774,3.894,23.731,6.005c1.04,4.677,27.982,8.459,60.636,8.459
			c32.825,0,59.071-4.143,59.865-8.863C251.277,314.052,261.337,313.043,261.337,310.579z"/>
		<path fill="#C7C7C7" d="M261.06,310.589c0-3.427-18.538-6.204-41.405-6.204c-14.463,0-27.188,1.112-34.593,2.797
			c-2.296-0.041-4.627-0.064-6.996-0.064c-2.717,0-5.387,0.031-8.007,0.083c-7.392-1.694-20.156-2.815-34.676-2.815
			c-22.866,0-41.405,2.777-41.405,6.204c0,2.521,9.736,3.864,23.636,5.992c1.044,4.657,27.907,8.424,60.452,8.424
			c32.717,0,58.868-4.132,59.667-8.834C251.022,314.026,261.06,313.045,261.06,310.589z"/>
		<path fill="#C6C6C6" d="M260.783,310.6c0-3.416-18.478-6.184-41.269-6.184c-14.416,0-27.098,1.108-34.478,2.787
			c-2.289-0.041-4.612-0.064-6.972-0.064c-2.709,0-5.369,0.03-7.98,0.083c-7.367-1.69-20.09-2.806-34.562-2.806
			c-22.79,0-41.267,2.768-41.267,6.184c0,2.512,9.698,3.833,23.541,5.979c1.05,4.637,27.831,8.388,60.269,8.388
			c32.608,0,58.663-4.122,59.469-8.804C250.768,314,260.783,313.047,260.783,310.6z"/>
		<path fill="#C5C5C5" d="M260.505,310.608c0-3.403-18.415-6.162-41.13-6.162c-14.368,0-27.008,1.104-34.363,2.777
			c-2.281-0.041-4.597-0.063-6.95-0.063c-2.7,0-5.351,0.03-7.954,0.082c-7.343-1.684-20.023-2.796-34.446-2.796
			c-22.714,0-41.13,2.759-41.13,6.162c0,2.504,9.659,3.804,23.446,5.967c1.054,4.617,27.754,8.354,60.084,8.354
			c32.5,0,58.459-4.112,59.271-8.775C250.512,313.975,260.505,313.048,260.505,310.608z"/>
		<path fill="#C4C4C4" d="M260.228,310.618c0-3.393-18.354-6.143-40.993-6.143c-14.319,0-26.917,1.102-34.249,2.769
			c-2.273-0.041-4.581-0.063-6.925-0.063c-2.691,0-5.334,0.03-7.928,0.082c-7.318-1.679-19.956-2.787-34.33-2.787
			c-22.64,0-40.993,2.75-40.993,6.143c0,2.495,9.621,3.772,23.35,5.954c1.059,4.598,27.68,8.318,59.901,8.318
			c32.391,0,58.256-4.104,59.072-8.746C250.257,313.948,260.228,313.049,260.228,310.618z"/>
		<path fill="#C3C3C3" d="M259.95,310.628c0-3.382-18.292-6.121-40.855-6.121c-14.271,0-26.828,1.097-34.133,2.759
			c-2.266-0.041-4.566-0.063-6.903-0.063c-2.682,0-5.315,0.03-7.901,0.082c-7.293-1.673-19.889-2.777-34.215-2.777
			c-22.562,0-40.855,2.739-40.855,6.121c0,2.486,9.582,3.742,23.254,5.94c1.063,4.578,27.604,8.284,59.717,8.284
			c32.282,0,58.052-4.094,58.875-8.717C250.002,313.923,259.95,313.051,259.95,310.628z"/>
		<path fill="#C2C2C2" d="M259.673,310.638c0-3.369-18.23-6.101-40.718-6.101c-14.224,0-26.737,1.094-34.019,2.75
			c-2.258-0.041-4.551-0.063-6.879-0.063c-2.672,0-5.298,0.03-7.875,0.082c-7.269-1.667-19.822-2.769-34.1-2.769
			c-22.487,0-40.718,2.731-40.718,6.101c0,2.479,9.543,3.712,23.159,5.928c1.067,4.559,27.527,8.249,59.533,8.249
			c32.173,0,57.847-4.083,58.677-8.688C249.748,313.896,259.673,313.053,259.673,310.638z"/>
		<path fill="#C1C1C1" d="M259.396,310.647c0-3.358-18.169-6.081-40.581-6.081c-14.175,0-26.646,1.091-33.903,2.741
			c-2.251-0.04-4.535-0.063-6.856-0.063c-2.663,0-5.279,0.03-7.848,0.082c-7.244-1.662-19.755-2.76-33.984-2.76
			c-22.411,0-40.581,2.723-40.581,6.081c0,2.47,9.504,3.682,23.064,5.915c1.072,4.539,27.451,8.214,59.349,8.214
			c32.065,0,57.644-4.074,58.479-8.658C249.492,313.871,259.396,313.054,259.396,310.647z"/>
		<path fill="#C0C0C0" d="M259.118,310.656c0-3.347-18.107-6.06-40.443-6.06c-14.128,0-26.557,1.087-33.789,2.731
			c-2.243-0.04-4.519-0.062-6.833-0.062c-2.654,0-5.262,0.029-7.821,0.081c-7.22-1.656-19.688-2.75-33.869-2.75
			c-22.336,0-40.443,2.713-40.443,6.06c0,2.462,9.466,3.652,22.968,5.902c1.077,4.52,27.376,8.179,59.165,8.179
			c31.957,0,57.439-4.063,58.281-8.628C249.236,313.845,259.118,313.055,259.118,310.656z"/>
		<path fill="#BFBFBF" d="M258.84,310.666c0-3.335-18.045-6.039-40.305-6.039c-14.08,0-26.466,1.083-33.674,2.723
			c-2.236-0.04-4.504-0.062-6.81-0.062c-2.646,0-5.244,0.029-7.794,0.08c-7.195-1.65-19.621-2.74-33.755-2.74
			c-22.259,0-40.305,2.704-40.305,6.039c0,2.454,9.427,3.622,22.873,5.891c1.082,4.499,27.3,8.143,58.981,8.143
			c31.848,0,57.236-4.054,58.083-8.6C248.981,313.819,258.84,313.057,258.84,310.666z"/>
		<path fill="#BEBEBE" d="M258.563,310.677c0-3.324-17.984-6.019-40.168-6.019c-14.031,0-26.376,1.078-33.56,2.713
			c-2.228-0.041-4.488-0.062-6.786-0.062c-2.637,0-5.226,0.029-7.768,0.08c-7.17-1.645-19.554-2.73-33.639-2.73
			c-22.184,0-40.168,2.694-40.168,6.019c0,2.444,9.389,3.591,22.777,5.876c1.086,4.48,27.225,8.108,58.798,8.108
			c31.739,0,57.031-4.044,57.884-8.569C248.727,313.793,258.563,313.059,258.563,310.677z"/>
		<path fill="#BDBDBD" d="M258.285,310.686c0-3.312-17.922-5.998-40.029-5.998c-13.984,0-26.286,1.076-33.445,2.704
			c-2.22-0.04-4.473-0.062-6.763-0.062c-2.627,0-5.208,0.028-7.741,0.08c-7.146-1.64-19.488-2.723-33.524-2.723
			c-22.107,0-40.03,2.686-40.03,5.998c0,2.438,9.35,3.562,22.682,5.864c1.091,4.46,27.149,8.073,58.614,8.073
			c31.63,0,56.827-4.034,57.686-8.54C248.472,313.768,258.285,313.06,258.285,310.686z"/>
		<path fill="#BCBCBC" d="M258.008,310.695c0-3.302-17.861-5.977-39.893-5.977c-13.936,0-26.196,1.071-33.33,2.693
			c-2.212-0.039-4.458-0.062-6.74-0.062c-2.618,0-5.19,0.029-7.715,0.08c-7.122-1.634-19.421-2.712-33.409-2.712
			c-22.032,0-39.893,2.675-39.893,5.977c0,2.429,9.311,3.531,22.586,5.852c1.095,4.44,27.073,8.038,58.43,8.038
			c31.521,0,56.624-4.025,57.487-8.511C248.217,313.741,258.008,313.061,258.008,310.695z"/>
		<path fill="#BBBBBB" d="M257.73,310.705c0-3.29-17.799-5.957-39.755-5.957c-13.888,0-26.105,1.068-33.215,2.686
			c-2.205-0.04-4.442-0.062-6.717-0.062c-2.609,0-5.172,0.028-7.688,0.079c-7.097-1.627-19.354-2.703-33.294-2.703
			c-21.955,0-39.755,2.667-39.755,5.957c0,2.42,9.272,3.5,22.491,5.838c1.1,4.422,26.997,8.004,58.246,8.004
			c31.413,0,56.42-4.016,57.29-8.482C247.962,313.716,257.73,313.063,257.73,310.705z"/>
		<path fill="#BABABA" d="M257.454,310.715c0-3.278-17.738-5.936-39.618-5.936c-13.84,0-26.016,1.064-33.1,2.676
			c-2.197-0.039-4.427-0.062-6.694-0.062c-2.6,0-5.155,0.029-7.662,0.079c-7.072-1.622-19.286-2.693-33.179-2.693
			c-21.88,0-39.618,2.657-39.618,5.936c0,2.412,9.234,3.471,22.396,5.826c1.105,4.401,26.922,7.968,58.063,7.968
			c31.305,0,56.215-4.005,57.091-8.452C247.707,313.689,257.454,313.064,257.454,310.715z"/>
		<path fill="#B9B9B9" d="M257.177,310.725c0-3.268-17.677-5.915-39.481-5.915c-13.791,0-25.925,1.06-32.984,2.666
			c-2.189-0.04-4.412-0.062-6.671-0.062c-2.591,0-5.136,0.029-7.635,0.08c-7.048-1.617-19.22-2.685-33.064-2.685
			c-21.803,0-39.48,2.647-39.48,5.915c0,2.403,9.195,3.439,22.301,5.812c1.108,4.382,26.846,7.934,57.878,7.934
			c31.196,0,56.013-3.996,56.895-8.424C247.451,313.664,257.177,313.066,257.177,310.725z"/>
		<path fill="#B8B8B8" d="M256.898,310.734c0-3.256-17.615-5.896-39.343-5.896c-13.743,0-25.835,1.058-32.87,2.657
			c-2.182-0.039-4.396-0.061-6.647-0.061c-2.583,0-5.119,0.029-7.609,0.078c-7.023-1.61-19.152-2.675-32.949-2.675
			c-21.727,0-39.342,2.64-39.342,5.896c0,2.395,9.157,3.409,22.205,5.8c1.113,4.361,26.77,7.897,57.695,7.897
			c31.087,0,55.808-3.985,56.696-8.394C247.196,313.639,256.898,313.067,256.898,310.734z"/>
		<path fill="#B7B7B7" d="M256.622,310.744c0-3.244-17.554-5.874-39.206-5.874c-13.695,0-25.744,1.053-32.755,2.647
			c-2.175-0.039-4.381-0.061-6.625-0.061c-2.573,0-5.101,0.028-7.582,0.078c-6.999-1.605-19.086-2.665-32.834-2.665
			c-21.651,0-39.205,2.63-39.205,5.874c0,2.387,9.119,3.379,22.109,5.787c1.119,4.342,26.695,7.863,57.511,7.863
			c30.979,0,55.604-3.977,56.498-8.365C246.941,313.612,256.622,313.069,256.622,310.744z"/>
		<path fill="#B6B6B6" d="M256.344,310.754c0-3.233-17.491-5.854-39.067-5.854c-13.647,0-25.654,1.049-32.641,2.639
			c-2.167-0.039-4.365-0.061-6.601-0.061c-2.564,0-5.083,0.028-7.555,0.078c-6.974-1.6-19.019-2.656-32.719-2.656
			c-21.576,0-39.068,2.62-39.068,5.854c0,2.378,9.08,3.349,22.015,5.773c1.123,4.323,26.618,7.829,57.327,7.829
			c30.87,0,55.399-3.966,56.3-8.336C246.687,313.587,256.344,313.07,256.344,310.754z"/>
		<path fill="#B5B5B5" d="M256.066,310.764c0-3.223-17.43-5.833-38.93-5.833c-13.6,0-25.564,1.046-32.526,2.629
			c-2.159-0.038-4.351-0.061-6.578-0.061c-2.555,0-5.065,0.028-7.529,0.078c-6.95-1.594-18.952-2.646-32.603-2.646
			c-21.5,0-38.931,2.61-38.931,5.833c0,2.369,9.042,3.318,21.919,5.761c1.127,4.304,26.543,7.793,57.144,7.793
			c30.762,0,55.195-3.956,56.102-8.306C246.432,313.561,256.066,313.072,256.066,310.764z"/>
		<path fill="#B4B4B4" d="M255.789,310.773c0-3.211-17.368-5.812-38.793-5.812c-13.551,0-25.474,1.041-32.411,2.619
			c-2.151-0.039-4.335-0.061-6.554-0.061c-2.546,0-5.047,0.029-7.502,0.078c-6.925-1.588-18.885-2.637-32.488-2.637
			c-21.424,0-38.793,2.602-38.793,5.812c0,2.36,9.003,3.287,21.824,5.747c1.132,4.284,26.467,7.759,56.959,7.759
			c30.652,0,54.992-3.947,55.902-8.276C246.176,313.535,255.789,313.074,255.789,310.773z"/>
		<path fill="#B3B3B3" d="M255.512,310.782c0-3.198-17.307-5.792-38.655-5.792c-13.504,0-25.384,1.039-32.296,2.611
			c-2.144-0.038-4.319-0.06-6.531-0.06c-2.537,0-5.029,0.028-7.476,0.077c-6.9-1.583-18.817-2.629-32.373-2.629
			c-21.348,0-38.656,2.594-38.656,5.792c0,2.354,8.964,3.259,21.729,5.736c1.136,4.264,26.392,7.723,56.775,7.723
			c30.545,0,54.788-3.937,55.705-8.247C245.922,313.509,255.512,313.075,255.512,310.782z"/>
		<path fill="#B2B2B2" d="M255.234,310.793c0-3.188-17.245-5.771-38.518-5.771c-13.455,0-25.293,1.034-32.181,2.602
			c-2.136-0.039-4.304-0.06-6.508-0.06c-2.528,0-5.011,0.028-7.449,0.077c-6.876-1.577-18.751-2.619-32.258-2.619
			c-21.272,0-38.518,2.583-38.518,5.771c0,2.344,8.925,3.228,21.633,5.723c1.141,4.244,26.316,7.688,56.592,7.688
			c30.436,0,54.583-3.927,55.507-8.218C245.666,313.483,255.234,313.077,255.234,310.793z"/>
		<path fill="#B1B1B1" d="M254.957,310.803c0-3.177-17.184-5.752-38.381-5.752c-13.406,0-25.202,1.031-32.065,2.593
			c-2.129-0.038-4.289-0.06-6.485-0.06c-2.519,0-4.993,0.028-7.422,0.077c-6.852-1.571-18.684-2.61-32.143-2.61
			c-21.196,0-38.381,2.575-38.381,5.752c0,2.336,8.887,3.197,21.538,5.709c1.146,4.225,26.24,7.653,56.407,7.653
			c30.327,0,54.381-3.917,55.309-8.188C245.411,313.457,254.957,313.078,254.957,310.803z"/>
		<path fill="#B0B0B0" d="M254.68,310.812c0-3.165-17.123-5.729-38.243-5.729c-13.359,0-25.112,1.026-31.951,2.582
			c-2.121-0.038-4.273-0.06-6.461-0.06c-2.51,0-4.976,0.028-7.396,0.077c-6.827-1.565-18.617-2.6-32.027-2.6
			c-21.12,0-38.243,2.564-38.243,5.729c0,2.328,8.848,3.167,21.442,5.696c1.149,4.206,26.164,7.619,56.224,7.619
			c30.218,0,54.176-3.908,55.11-8.16C245.156,313.432,254.68,313.08,254.68,310.812z"/>
		<path fill="#AFAFAF" d="M254.402,310.821c0-3.153-17.061-5.709-38.105-5.709c-13.312,0-25.022,1.023-31.836,2.573
			c-2.114-0.038-4.258-0.059-6.438-0.059c-2.5,0-4.958,0.027-7.369,0.076c-6.803-1.561-18.551-2.591-31.913-2.591
			c-21.044,0-38.105,2.556-38.105,5.709c0,2.319,8.81,3.138,21.346,5.685c1.155,4.186,26.089,7.583,56.041,7.583
			c30.11,0,53.972-3.897,54.913-8.13C244.901,313.405,254.402,313.081,254.402,310.821z"/>
		<path fill="#AEAEAE" d="M254.125,310.832c0-3.143-16.999-5.689-37.968-5.689c-13.264,0-24.933,1.02-31.722,2.564
			c-2.106-0.038-4.243-0.059-6.415-0.059c-2.492,0-4.94,0.027-7.343,0.075c-6.777-1.554-18.483-2.581-31.797-2.581
			c-20.969,0-37.968,2.547-37.968,5.689c0,2.311,8.771,3.105,21.251,5.671c1.159,4.165,26.013,7.548,55.856,7.548
			c30.001,0,53.769-3.889,54.714-8.101C244.646,313.38,254.125,313.083,254.125,310.832z"/>
		<path fill="#ADADAD" d="M253.848,310.841c0-3.131-16.938-5.668-37.831-5.668c-13.215,0-24.842,1.016-31.606,2.555
			c-2.098-0.038-4.228-0.059-6.392-0.059c-2.483,0-4.922,0.027-7.316,0.075c-6.753-1.549-18.416-2.571-31.682-2.571
			c-20.893,0-37.831,2.537-37.831,5.668c0,2.303,8.732,3.076,21.156,5.658c1.164,4.146,25.937,7.513,55.673,7.513
			c29.893,0,53.564-3.878,54.517-8.071C244.391,313.354,253.848,313.085,253.848,310.841z"/>
		<path fill="#ACACAC" d="M253.57,310.85c0-3.119-16.877-5.647-37.693-5.647c-13.168,0-24.752,1.013-31.492,2.546
			c-2.091-0.037-4.212-0.059-6.368-0.059c-2.474,0-4.904,0.027-7.29,0.076c-6.729-1.544-18.349-2.563-31.567-2.563
			c-20.816,0-37.693,2.528-37.693,5.647c0,2.295,8.694,3.047,21.06,5.646c1.169,4.126,25.861,7.478,55.489,7.478
			c29.784,0,53.36-3.868,54.318-8.042C244.136,313.328,253.57,313.086,253.57,310.85z"/>
		<path fill="#ABABAB" d="M253.293,310.86c0-3.108-16.814-5.627-37.556-5.627c-13.119,0-24.661,1.009-31.377,2.536
			c-2.083-0.037-4.197-0.059-6.346-0.059c-2.465,0-4.886,0.027-7.263,0.076c-6.704-1.538-18.282-2.554-31.452-2.554
			c-20.741,0-37.555,2.519-37.555,5.627c0,2.286,8.655,3.016,20.965,5.632c1.173,4.107,25.785,7.443,55.305,7.443
			c29.676,0,53.156-3.858,54.12-8.012C243.881,313.302,253.293,313.088,253.293,310.86z"/>
		<path fill="#AAAAAA" d="M253.016,310.87c0-3.097-16.753-5.606-37.418-5.606c-13.071,0-24.571,1.006-31.262,2.527
			c-2.076-0.037-4.181-0.059-6.322-0.059c-2.456,0-4.868,0.027-7.236,0.075c-6.68-1.532-18.216-2.544-31.337-2.544
			c-20.665,0-37.418,2.51-37.418,5.606c0,2.278,8.617,2.985,20.87,5.62c1.177,4.087,25.709,7.407,55.121,7.407
			c29.567,0,52.952-3.849,53.922-7.982C243.626,313.276,253.016,313.089,253.016,310.87z"/>
		<path fill="#A9A9A9" d="M252.738,310.879c0-3.085-16.691-5.585-37.281-5.585c-13.023,0-24.48,1.001-31.146,2.518
			c-2.068-0.037-4.167-0.058-6.299-0.058c-2.447,0-4.851,0.027-7.21,0.074c-6.655-1.526-18.149-2.534-31.222-2.534
			c-20.589,0-37.28,2.5-37.28,5.585c0,2.27,8.578,2.956,20.774,5.607c1.182,4.067,25.634,7.373,54.938,7.373
			c29.457,0,52.748-3.84,53.724-7.954C243.371,313.25,252.738,313.091,252.738,310.879z"/>
		<path fill="#A8A8A8" d="M252.46,310.889c0-3.074-16.63-5.564-37.143-5.564c-12.976,0-24.391,0.997-31.033,2.508
			c-2.06-0.037-4.151-0.058-6.275-0.058c-2.438,0-4.833,0.027-7.183,0.074c-6.631-1.521-18.082-2.524-31.106-2.524
			c-20.513,0-37.143,2.49-37.143,5.564c0,2.262,8.539,2.926,20.679,5.594c1.187,4.049,25.558,7.338,54.753,7.338
			c29.349,0,52.544-3.829,53.526-7.924C243.115,313.225,252.46,313.092,252.46,310.889z"/>
		<path fill="#A7A7A7" d="M252.184,310.898c0-3.062-16.568-5.544-37.006-5.544c-12.928,0-24.301,0.993-30.917,2.499
			c-2.052-0.037-4.135-0.058-6.252-0.058c-2.429,0-4.815,0.027-7.157,0.074c-6.606-1.515-18.015-2.516-30.992-2.516
			c-20.437,0-37.005,2.481-37.005,5.544c0,2.253,8.5,2.895,20.583,5.582c1.191,4.028,25.482,7.303,54.57,7.303
			c29.24,0,52.34-3.82,53.327-7.896C242.861,313.198,252.184,313.094,252.184,310.898z"/>
		<path fill="#A6A6A6" d="M251.906,310.908c0-3.051-16.507-5.523-36.868-5.523c-12.88,0-24.21,0.99-30.803,2.49
			c-2.045-0.037-4.12-0.057-6.229-0.057c-2.419,0-4.796,0.026-7.13,0.073c-6.581-1.51-17.948-2.507-30.876-2.507
			c-20.361,0-36.868,2.473-36.868,5.523c0,2.245,8.461,2.865,20.488,5.569c1.196,4.009,25.407,7.268,54.386,7.268
			c29.133,0,52.137-3.81,53.129-7.866C242.606,313.173,251.906,313.096,251.906,310.908z"/>
		<path fill="#A5A5A5" d="M251.629,310.918c0-3.04-16.445-5.504-36.731-5.504c-12.831,0-24.119,0.988-30.688,2.481
			c-2.037-0.036-4.104-0.057-6.206-0.057c-2.41,0-4.778,0.026-7.104,0.073c-6.557-1.504-17.88-2.498-30.761-2.498
			c-20.285,0-36.73,2.464-36.73,5.504c0,2.236,8.423,2.834,20.393,5.556c1.201,3.989,25.331,7.233,54.202,7.233
			c29.023,0,51.933-3.801,52.932-7.837C242.351,313.146,251.629,313.097,251.629,310.918z"/>
		<path fill="#A4A4A4" d="M251.351,310.928c0-3.028-16.384-5.482-36.593-5.482c-12.783,0-24.029,0.982-30.573,2.471
			c-2.029-0.036-4.089-0.057-6.183-0.057c-2.401,0-4.761,0.027-7.077,0.073c-6.532-1.498-17.813-2.487-30.646-2.487
			c-20.209,0-36.593,2.454-36.593,5.482c0,2.228,8.385,2.804,20.297,5.543c1.205,3.97,25.255,7.197,54.019,7.197
			c28.915,0,51.729-3.79,52.733-7.807C242.096,313.121,251.351,313.098,251.351,310.928z"/>
		<path fill="#A3A3A3" d="M251.074,310.938c0-3.017-16.323-5.462-36.457-5.462c-12.734,0-23.938,0.979-30.457,2.462
			c-2.022-0.036-4.074-0.057-6.16-0.057c-2.392,0-4.743,0.027-7.05,0.073c-6.508-1.493-17.747-2.479-30.53-2.479
			c-20.134,0-36.456,2.445-36.456,5.462c0,2.219,8.347,2.773,20.202,5.529c1.209,3.951,25.179,7.164,53.834,7.164
			c28.807,0,51.525-3.781,52.535-7.778C241.841,313.095,251.074,313.1,251.074,310.938z"/>
		<path fill="#A2A2A2" d="M250.797,310.947c0-3.006-16.262-5.441-36.319-5.441c-12.687,0-23.848,0.976-30.343,2.453
			c-2.014-0.037-4.059-0.057-6.136-0.057c-2.384,0-4.726,0.026-7.024,0.073c-6.483-1.487-17.68-2.47-30.416-2.47
			c-20.058,0-36.318,2.436-36.318,5.441c0,2.211,8.308,2.744,20.107,5.518c1.214,3.93,25.104,7.128,53.65,7.128
			c28.697,0,51.319-3.771,52.337-7.749C241.586,313.069,250.797,313.102,250.797,310.947z"/>
		<path fill="#A1A1A1" d="M250.519,310.957c0-2.994-16.199-5.421-36.181-5.421c-12.639,0-23.758,0.972-30.228,2.443
			c-2.007-0.036-4.043-0.056-6.113-0.056c-2.375,0-4.707,0.026-6.997,0.072c-6.459-1.481-17.613-2.46-30.301-2.46
			c-19.981,0-36.181,2.427-36.181,5.421c0,2.202,8.27,2.713,20.012,5.504c1.218,3.911,25.027,7.093,53.467,7.093
			c28.589,0,51.116-3.761,52.139-7.719C241.331,313.043,250.519,313.103,250.519,310.957z"/>
		<path fill="#A0A0A0" d="M250.241,310.967c0-2.983-16.138-5.4-36.044-5.4c-12.591,0-23.668,0.968-30.113,2.434
			c-1.999-0.036-4.028-0.056-6.09-0.056c-2.366,0-4.689,0.026-6.97,0.072c-6.435-1.476-17.547-2.45-30.186-2.45
			c-19.905,0-36.043,2.417-36.043,5.4c0,2.193,8.23,2.682,19.916,5.491c1.223,3.891,24.952,7.058,53.283,7.058
			c28.48,0,50.912-3.752,51.941-7.689C241.075,313.018,250.241,313.104,250.241,310.967z"/>
		<path fill="#9F9F9F" d="M249.964,310.977c0-2.972-16.076-5.38-35.905-5.38c-12.543,0-23.578,0.964-29.999,2.425
			c-1.991-0.036-4.013-0.056-6.066-0.056c-2.356,0-4.671,0.026-6.944,0.071c-6.41-1.47-17.479-2.44-30.069-2.44
			c-19.83,0-35.906,2.408-35.906,5.38c0,2.186,8.192,2.652,19.821,5.479c1.228,3.871,24.876,7.022,53.099,7.022
			c28.372,0,50.708-3.741,51.743-7.661C240.82,312.991,249.964,313.106,249.964,310.977z"/>
		<path fill="#9E9E9E" d="M249.687,310.986c0-2.96-16.015-5.359-35.769-5.359c-12.494,0-23.487,0.961-29.883,2.416
			c-1.984-0.036-3.997-0.056-6.044-0.056c-2.347,0-4.653,0.026-6.917,0.071c-6.385-1.465-17.412-2.432-29.955-2.432
			c-19.753,0-35.768,2.399-35.768,5.359c0,2.178,8.154,2.622,19.725,5.465c1.232,3.853,24.801,6.988,52.915,6.988
			c28.263,0,50.505-3.732,51.545-7.631C240.566,312.966,249.687,313.107,249.687,310.986z"/>
		<path fill="#9D9D9D" d="M249.409,310.996c0-2.949-15.953-5.339-35.631-5.339c-12.447,0-23.397,0.957-29.769,2.406
			c-1.976-0.036-3.981-0.056-6.02-0.056c-2.338,0-4.636,0.027-6.891,0.072c-6.361-1.459-17.345-2.423-29.84-2.423
			c-19.678,0-35.63,2.39-35.63,5.339c0,2.168,8.114,2.592,19.63,5.452c1.237,3.832,24.724,6.952,52.731,6.952
			c28.154,0,50.3-3.722,51.346-7.602C240.311,312.939,249.409,313.109,249.409,310.996z"/>
		<path fill="#9C9C9C" d="M249.131,311.005c0-2.938-15.891-5.317-35.492-5.317c-12.399,0-23.308,0.953-29.654,2.396
			c-1.969-0.035-3.967-0.055-5.997-0.055c-2.33,0-4.618,0.025-6.864,0.071c-6.336-1.454-17.278-2.413-29.725-2.413
			c-19.602,0-35.493,2.38-35.493,5.317c0,2.161,8.076,2.562,19.535,5.44c1.242,3.812,24.649,6.917,52.547,6.917
			c28.046,0,50.097-3.712,51.148-7.572C240.055,312.914,249.131,313.11,249.131,311.005z"/>
		<path fill="#9B9B9B" d="M248.854,311.016c0-2.927-15.83-5.298-35.356-5.298c-12.35,0-23.216,0.949-29.539,2.388
			c-1.96-0.035-3.95-0.055-5.974-0.055c-2.32,0-4.6,0.026-6.837,0.07c-6.312-1.447-17.212-2.403-29.609-2.403
			c-19.526,0-35.356,2.371-35.356,5.298c0,2.151,8.037,2.531,19.439,5.427c1.246,3.793,24.573,6.882,52.363,6.882
			c27.938,0,49.894-3.702,50.95-7.543C239.8,312.888,248.854,313.112,248.854,311.016z"/>
		<path fill="#9A9A9A" d="M248.577,311.025c0-2.915-15.768-5.277-35.218-5.277c-12.304,0-23.127,0.946-29.425,2.379
			c-1.953-0.035-3.936-0.055-5.95-0.055c-2.312,0-4.582,0.025-6.811,0.07c-6.287-1.441-17.145-2.395-29.495-2.395
			c-19.449,0-35.218,2.362-35.218,5.277c0,2.144,7.999,2.5,19.344,5.414c1.25,3.773,24.497,6.848,52.18,6.848
			c27.828,0,49.688-3.693,50.752-7.514C239.545,312.862,248.577,313.113,248.577,311.025z"/>
		<path fill="#999999" d="M248.3,311.034c0-2.903-15.706-5.256-35.081-5.256c-12.255,0-23.036,0.942-29.31,2.369
			c-1.945-0.035-3.92-0.055-5.927-0.055c-2.303,0-4.564,0.026-6.785,0.07c-6.263-1.436-17.078-2.385-29.379-2.385
			c-19.374,0-35.08,2.353-35.08,5.256c0,2.136,7.96,2.472,19.248,5.401c1.255,3.754,24.421,6.812,51.996,6.812
			c27.72,0,49.484-3.683,50.554-7.484C239.29,312.836,248.3,313.115,248.3,311.034z"/>
		<path fill="#989898" d="M248.021,311.044c0-2.892-15.645-5.235-34.943-5.235c-12.206,0-22.945,0.938-29.194,2.359
			c-1.938-0.035-3.904-0.054-5.903-0.054c-2.293,0-4.547,0.025-6.758,0.069c-6.238-1.431-17.011-2.375-29.264-2.375
			c-19.298,0-34.943,2.344-34.943,5.235c0,2.127,7.921,2.44,19.153,5.389c1.26,3.733,24.346,6.777,51.812,6.777
			c27.611,0,49.28-3.673,50.355-7.455C239.035,312.811,248.021,313.116,248.021,311.044z"/>
		<path fill="#979797" d="M247.745,311.054c0-2.88-15.584-5.216-34.806-5.216c-12.159,0-22.856,0.936-29.08,2.352
			c-1.931-0.035-3.89-0.055-5.881-0.055c-2.284,0-4.528,0.025-6.731,0.07c-6.213-1.426-16.943-2.367-29.148-2.367
			c-19.222,0-34.806,2.336-34.806,5.216c0,2.118,7.883,2.411,19.057,5.376c1.265,3.715,24.27,6.742,51.628,6.742
			c27.502,0,49.076-3.664,50.157-7.426C238.78,312.785,247.745,313.118,247.745,311.054z"/>
		<path fill="#969696" d="M247.468,311.064c0-2.869-15.522-5.195-34.669-5.195c-12.11,0-22.765,0.932-28.964,2.342
			c-1.923-0.035-3.875-0.054-5.857-0.054c-2.275,0-4.51,0.025-6.705,0.069c-6.189-1.42-16.877-2.357-29.034-2.357
			c-19.146,0-34.668,2.326-34.668,5.195c0,2.109,7.845,2.379,18.962,5.361c1.27,3.695,24.194,6.708,51.445,6.708
			c27.394,0,48.873-3.653,49.958-7.396C238.525,312.76,247.468,313.12,247.468,311.064z"/>
		<path fill="#959595" d="M247.189,311.073c0-2.858-15.46-5.174-34.53-5.174c-12.062,0-22.675,0.927-28.85,2.332
			c-1.916-0.034-3.859-0.054-5.834-0.054c-2.267,0-4.493,0.025-6.678,0.069c-6.164-1.414-16.81-2.348-28.919-2.348
			c-19.07,0-34.53,2.315-34.53,5.174c0,2.103,7.806,2.349,18.866,5.35c1.274,3.675,24.119,6.673,51.261,6.673
			c27.285,0,48.668-3.645,49.761-7.367C238.27,312.732,247.189,313.121,247.189,311.073z"/>
		<path fill="#949494" d="M246.913,311.083c0-2.847-15.399-5.153-34.394-5.153c-12.015,0-22.585,0.924-28.735,2.322
			c-1.907-0.034-3.844-0.053-5.811-0.053c-2.257,0-4.475,0.025-6.651,0.068c-6.14-1.408-16.744-2.338-28.804-2.338
			c-18.995,0-34.394,2.307-34.394,5.153c0,2.093,7.767,2.319,18.771,5.337c1.278,3.655,24.043,6.638,51.077,6.638
			c27.177,0,48.464-3.635,49.563-7.338C238.015,312.707,246.913,313.123,246.913,311.083z"/>
		<path fill="#939393" d="M246.635,311.092c0-2.834-15.337-5.132-34.256-5.132c-11.967,0-22.494,0.92-28.62,2.313
			c-1.899-0.034-3.828-0.053-5.787-0.053c-2.249,0-4.457,0.024-6.625,0.068c-6.115-1.402-16.676-2.329-28.688-2.329
			c-18.919,0-34.256,2.298-34.256,5.132c0,2.086,7.729,2.29,18.676,5.325c1.283,3.636,23.967,6.603,50.894,6.603
			c27.067,0,48.261-3.625,49.365-7.309C237.76,312.682,246.635,313.125,246.635,311.092z"/>
		<path fill="#929292" d="M246.357,311.103c0-2.824-15.275-5.112-34.118-5.112c-11.919,0-22.404,0.916-28.505,2.305
			c-1.892-0.035-3.812-0.054-5.764-0.054c-2.239,0-4.439,0.025-6.599,0.068c-6.09-1.396-16.609-2.319-28.573-2.319
			c-18.843,0-34.119,2.288-34.119,5.112c0,2.077,7.689,2.259,18.58,5.312c1.288,3.616,23.892,6.566,50.71,6.566
			c26.959,0,48.056-3.614,49.167-7.278C237.505,312.655,246.357,313.125,246.357,311.103z"/>
		<path fill="#919191" d="M246.08,311.112c0-2.812-15.214-5.092-33.98-5.092c-11.871,0-22.313,0.913-28.391,2.295
			c-1.885-0.034-3.797-0.053-5.741-0.053c-2.23,0-4.421,0.025-6.571,0.067c-6.066-1.391-16.543-2.31-28.458-2.31
			c-18.767,0-33.981,2.279-33.981,5.092c0,2.068,7.651,2.229,18.485,5.298c1.292,3.597,23.815,6.532,50.525,6.532
			c26.851,0,47.853-3.604,48.969-7.249C237.25,312.629,246.08,313.127,246.08,311.112z"/>
		<path fill="#909090" d="M245.803,311.121c0-2.801-15.152-5.07-33.844-5.07c-11.822,0-22.223,0.909-28.275,2.286
			c-1.877-0.034-3.782-0.053-5.718-0.053c-2.221,0-4.403,0.024-6.545,0.067c-6.042-1.386-16.476-2.301-28.343-2.301
			c-18.691,0-33.844,2.27-33.844,5.07c0,2.061,7.613,2.198,18.39,5.286c1.297,3.577,23.74,6.497,50.342,6.497
			c26.742,0,47.649-3.595,48.771-7.22C236.994,312.604,245.803,313.129,245.803,311.121z"/>
		<path fill="#8F8F8F" d="M245.525,311.131c0-2.789-15.091-5.05-33.706-5.05c-11.774,0-22.133,0.905-28.16,2.276
			c-1.87-0.033-3.767-0.053-5.695-0.053c-2.212,0-4.385,0.025-6.519,0.068c-6.017-1.381-16.408-2.292-28.228-2.292
			c-18.615,0-33.706,2.261-33.706,5.05c0,2.052,7.574,2.168,18.295,5.273c1.301,3.558,23.664,6.462,50.157,6.462
			c26.634,0,47.444-3.585,48.572-7.19C236.739,312.578,245.525,313.131,245.525,311.131z"/>
		<path fill="#8E8E8E" d="M245.248,311.141c0-2.777-15.029-5.029-33.568-5.029c-11.727,0-22.043,0.901-28.046,2.267
			c-1.862-0.033-3.751-0.052-5.672-0.052c-2.203,0-4.367,0.024-6.491,0.067c-5.993-1.375-16.342-2.282-28.113-2.282
			c-18.538,0-33.568,2.252-33.568,5.029c0,2.043,7.536,2.138,18.199,5.26c1.306,3.538,23.588,6.428,49.974,6.428
			c26.524,0,47.241-3.575,48.375-7.162C236.484,312.552,245.248,313.132,245.248,311.141z"/>
		<path fill="#8D8D8D" d="M244.971,311.15c0-2.767-14.968-5.009-33.431-5.009c-11.679,0-21.953,0.897-27.931,2.258
			c-1.855-0.033-3.736-0.052-5.649-0.052c-2.194,0-4.35,0.024-6.465,0.066c-5.968-1.369-16.274-2.272-27.998-2.272
			c-18.463,0-33.431,2.242-33.431,5.009c0,2.035,7.497,2.107,18.104,5.248c1.311,3.518,23.513,6.392,49.791,6.392
			c26.417,0,47.037-3.565,48.176-7.132C236.229,312.526,244.971,313.134,244.971,311.15z"/>
		<path fill="#8C8C8C" d="M244.693,311.16c0-2.756-14.906-4.988-33.293-4.988c-11.631,0-21.863,0.895-27.816,2.248
			c-1.847-0.033-3.721-0.051-5.625-0.051c-2.186,0-4.332,0.024-6.439,0.066c-5.943-1.363-16.208-2.264-27.882-2.264
			c-18.387,0-33.294,2.232-33.294,4.988c0,2.027,7.458,2.077,18.009,5.234c1.314,3.498,23.437,6.357,49.606,6.357
			c26.307,0,46.832-3.557,47.978-7.104C235.975,312.5,244.693,313.135,244.693,311.16z"/>
		<path fill="#8B8B8B" d="M244.416,311.17c0-2.744-14.845-4.968-33.156-4.968c-11.582,0-21.772,0.891-27.701,2.239
			c-1.839-0.033-3.705-0.051-5.602-0.051c-2.177,0-4.314,0.023-6.412,0.065c-5.919-1.357-16.141-2.254-27.768-2.254
			c-18.311,0-33.155,2.224-33.155,4.968c0,2.019,7.419,2.047,17.912,5.222c1.319,3.479,23.361,6.322,49.423,6.322
			c26.199,0,46.629-3.547,47.779-7.074C235.72,312.475,244.416,313.137,244.416,311.17z"/>
		<path fill="#8A8A8A" d="M244.139,311.18c0-2.732-14.783-4.947-33.019-4.947c-11.534,0-21.682,0.887-27.586,2.23
			c-1.832-0.033-3.69-0.052-5.579-0.052c-2.167,0-4.296,0.024-6.386,0.065c-5.894-1.352-16.073-2.244-27.652-2.244
			c-18.234,0-33.018,2.215-33.018,4.947c0,2.01,7.381,2.017,17.817,5.209c1.324,3.459,23.286,6.287,49.239,6.287
			c26.09,0,46.424-3.537,47.582-7.045C235.465,312.449,244.139,313.138,244.139,311.18z"/>
		<path fill="#898989" d="M243.861,311.189c0-2.721-14.722-4.927-32.881-4.927c-11.486,0-21.592,0.884-27.472,2.221
			c-1.824-0.033-3.675-0.051-5.556-0.051c-2.158,0-4.278,0.024-6.359,0.065c-5.869-1.346-16.007-2.235-27.536-2.235
			c-18.16,0-32.881,2.206-32.881,4.927c0,2.001,7.342,1.986,17.722,5.195c1.328,3.439,23.209,6.252,49.055,6.252
			c25.981,0,46.221-3.526,47.384-7.015C235.21,312.423,243.861,313.14,243.861,311.189z"/>
		<path fill="#888888" d="M243.584,311.199c0-2.71-14.66-4.906-32.744-4.906c-11.438,0-21.501,0.88-27.356,2.211
			c-1.816-0.032-3.66-0.05-5.533-0.05c-2.149,0-4.26,0.023-6.332,0.065c-5.846-1.341-15.94-2.227-27.422-2.227
			c-18.083,0-32.744,2.196-32.744,4.906c0,1.992,7.303,1.956,17.626,5.183c1.333,3.42,23.134,6.218,48.871,6.218
			c25.873,0,46.018-3.518,47.186-6.986C234.955,312.396,243.584,313.141,243.584,311.199z"/>
		<path fill="#878787" d="M243.307,311.209c0-2.699-14.6-4.886-32.606-4.886c-11.39,0-21.411,0.876-27.241,2.202
			c-1.809-0.033-3.644-0.051-5.51-0.051c-2.14,0-4.242,0.023-6.306,0.065c-5.82-1.335-15.873-2.217-27.307-2.217
			c-18.007,0-32.606,2.187-32.606,4.886c0,1.984,7.265,1.925,17.531,5.17c1.337,3.4,23.058,6.182,48.687,6.182
			c25.765,0,45.812-3.507,46.988-6.956C234.699,312.371,243.307,313.143,243.307,311.209z"/>
		<path fill="#868686" d="M243.029,311.219c0-2.688-14.537-4.865-32.469-4.865c-11.342,0-21.321,0.872-27.127,2.193
			c-1.801-0.033-3.628-0.051-5.486-0.051c-2.131,0-4.224,0.023-6.279,0.064c-5.797-1.329-15.807-2.207-27.192-2.207
			c-17.931,0-32.468,2.178-32.468,4.865c0,1.977,7.227,1.895,17.436,5.157c1.342,3.381,22.982,6.147,48.503,6.147
			c25.656,0,45.609-3.498,46.789-6.928C234.444,312.345,243.029,313.145,243.029,311.219z"/>
		<path fill="#858585" d="M242.752,311.229c0-2.676-14.476-4.845-32.332-4.845c-11.294,0-21.23,0.868-27.012,2.184
			c-1.793-0.032-3.613-0.05-5.462-0.05c-2.122,0-4.207,0.023-6.253,0.064c-5.771-1.324-15.739-2.198-27.076-2.198
			c-17.856,0-32.332,2.169-32.332,4.845c0,1.968,7.188,1.864,17.341,5.144c1.346,3.361,22.906,6.112,48.32,6.112
			c25.547,0,45.404-3.487,46.591-6.897C234.189,312.319,242.752,313.146,242.752,311.229z"/>
		<path fill="#848484" d="M242.475,311.238c0-2.665-14.414-4.824-32.194-4.824c-11.246,0-21.14,0.865-26.897,2.175
			c-1.786-0.032-3.598-0.051-5.439-0.051c-2.113,0-4.189,0.024-6.227,0.064c-5.747-1.317-15.672-2.188-26.961-2.188
			c-17.779,0-32.193,2.159-32.193,4.824c0,1.959,7.149,1.834,17.245,5.131c1.352,3.342,22.83,6.077,48.136,6.077
			c25.438,0,45.2-3.478,46.394-6.868C233.935,312.293,242.475,313.147,242.475,311.238z"/>
		<path fill="#838383" d="M242.197,311.247c0-2.652-14.353-4.803-32.057-4.803c-11.198,0-21.05,0.861-26.782,2.165
			c-1.778-0.032-3.583-0.05-5.416-0.05c-2.104,0-4.171,0.023-6.199,0.063c-5.723-1.312-15.605-2.179-26.846-2.179
			c-17.704,0-32.056,2.15-32.056,4.803c0,1.952,7.11,1.805,17.149,5.119c1.356,3.322,22.755,6.042,47.952,6.042
			c25.33,0,44.997-3.469,46.194-6.84C233.68,312.268,242.197,313.148,242.197,311.247z"/>
		<path fill="#828282" d="M241.919,311.257c0-2.642-14.29-4.782-31.919-4.782c-11.149,0-20.959,0.857-26.667,2.155
			c-1.771-0.032-3.567-0.049-5.393-0.049c-2.095,0-4.152,0.023-6.173,0.063c-5.698-1.307-15.538-2.17-26.731-2.17
			c-17.627,0-31.918,2.141-31.918,4.782c0,1.943,7.072,1.774,17.054,5.106c1.361,3.302,22.679,6.007,47.768,6.007
			c25.222,0,44.793-3.459,45.997-6.81C233.424,312.241,241.919,313.15,241.919,311.257z"/>
		<path fill="#818181" d="M241.643,311.267c0-2.63-14.229-4.762-31.782-4.762c-11.102,0-20.869,0.854-26.552,2.146
			c-1.763-0.032-3.552-0.05-5.37-0.05c-2.086,0-4.135,0.023-6.146,0.064c-5.673-1.301-15.471-2.161-26.615-2.161
			c-17.552,0-31.781,2.132-31.781,4.762c0,1.935,7.033,1.744,16.959,5.093c1.365,3.283,22.604,5.973,47.584,5.973
			c25.113,0,44.589-3.449,45.799-6.781C233.169,312.216,241.643,313.151,241.643,311.267z"/>
		<path fill="#808080" d="M241.364,311.276c0-2.619-14.167-4.741-31.644-4.741c-11.054,0-20.779,0.85-26.438,2.137
			c-1.755-0.031-3.536-0.049-5.347-0.049c-2.077,0-4.117,0.023-6.119,0.063c-5.649-1.296-15.405-2.151-26.501-2.151
			c-17.476,0-31.644,2.122-31.644,4.741c0,1.927,6.995,1.714,16.863,5.08c1.37,3.263,22.527,5.938,47.4,5.938
			c25.004,0,44.386-3.439,45.601-6.751C232.914,312.189,241.364,313.153,241.364,311.276z"/>
		<path fill="#7F7F7F" d="M241.088,311.286c0-2.607-14.106-4.721-31.507-4.721c-11.006,0-20.689,0.847-26.323,2.128
			c-1.747-0.031-3.521-0.049-5.323-0.049c-2.067,0-4.099,0.023-6.093,0.062c-5.624-1.29-15.337-2.142-26.385-2.142
			c-17.4,0-31.506,2.113-31.506,4.721c0,1.918,6.957,1.684,16.768,5.067c1.375,3.243,22.452,5.902,47.216,5.902
			c24.896,0,44.181-3.43,45.403-6.722C232.659,312.164,241.088,313.154,241.088,311.286z"/>
		<path fill="#7E7E7E" d="M240.81,311.296c0-2.597-14.044-4.7-31.368-4.7c-10.958,0-20.599,0.843-26.208,2.119
			c-1.74-0.032-3.506-0.049-5.3-0.049c-2.059,0-4.081,0.022-6.067,0.062c-5.6-1.285-15.27-2.133-26.27-2.133
			c-17.324,0-31.369,2.104-31.369,4.7c0,1.909,6.918,1.653,16.673,5.054c1.379,3.225,22.376,5.868,47.033,5.868
			c24.787,0,43.977-3.42,45.205-6.693C232.404,312.138,240.81,313.156,240.81,311.296z"/>
		<path fill="#7D7D7D" d="M240.532,311.306c0-2.585-13.982-4.68-31.231-4.68c-10.91,0-20.508,0.839-26.093,2.109
			c-1.732-0.031-3.49-0.049-5.276-0.049c-2.05,0-4.063,0.023-6.04,0.062c-5.575-1.278-15.204-2.123-26.155-2.123
			c-17.248,0-31.231,2.095-31.231,4.68c0,1.901,6.879,1.622,16.578,5.042c1.383,3.203,22.3,5.831,46.849,5.831
			c24.678,0,43.772-3.409,45.006-6.663C232.148,312.112,240.532,313.158,240.532,311.306z"/>
		<path fill="#7C7C7C" d="M240.256,311.315c0-2.573-13.922-4.659-31.095-4.659c-10.862,0-20.418,0.835-25.978,2.1
			c-1.725-0.03-3.475-0.048-5.253-0.048c-2.041,0-4.045,0.022-6.013,0.062c-5.551-1.272-15.137-2.113-26.041-2.113
			c-17.172,0-31.094,2.086-31.094,4.659c0,1.893,6.841,1.592,16.482,5.028c1.388,3.185,22.225,5.797,46.666,5.797
			c24.569,0,43.568-3.399,44.809-6.634C231.894,312.086,240.256,313.16,240.256,311.315z"/>
		<path fill="#7B7B7B" d="M239.978,311.324c0-2.562-13.86-4.638-30.956-4.638c-10.814,0-20.328,0.831-25.863,2.091
			c-1.717-0.031-3.46-0.048-5.23-0.048c-2.032,0-4.027,0.022-5.987,0.062c-5.526-1.268-15.07-2.104-25.925-2.104
			c-17.096,0-30.956,2.076-30.956,4.638c0,1.885,6.802,1.562,16.387,5.017c1.393,3.165,22.149,5.762,46.481,5.762
			c24.461,0,43.365-3.39,44.61-6.604C231.639,312.061,239.978,313.16,239.978,311.324z"/>
		<path fill="#7A7A7A" d="M239.701,311.335c0-2.552-13.799-4.618-30.819-4.618c-10.767,0-20.238,0.828-25.749,2.082
			c-1.709-0.031-3.444-0.049-5.207-0.049c-2.023,0-4.01,0.023-5.96,0.062c-5.502-1.262-15.003-2.096-25.81-2.096
			c-17.021,0-30.819,2.066-30.819,4.618c0,1.876,6.764,1.531,16.292,5.003c1.397,3.145,22.073,5.727,46.298,5.727
			c24.352,0,43.161-3.381,44.412-6.575C231.384,312.034,239.701,313.162,239.701,311.335z"/>
		<path fill="#797979" d="M239.423,311.345c0-2.54-13.737-4.598-30.681-4.598c-10.719,0-20.148,0.824-25.634,2.072
			c-1.702-0.03-3.429-0.048-5.185-0.048c-2.014,0-3.991,0.022-5.933,0.062c-5.477-1.256-14.936-2.086-25.695-2.086
			c-16.944,0-30.682,2.058-30.682,4.598c0,1.867,6.725,1.501,16.196,4.989c1.402,3.126,21.998,5.692,46.114,5.692
			c24.244,0,42.957-3.371,44.214-6.546C231.129,312.009,239.423,313.164,239.423,311.345z"/>
		<path fill="#787878" d="M239.146,311.354c0-2.527-13.675-4.576-30.544-4.576c-10.67,0-20.057,0.82-25.519,2.063
			c-1.694-0.031-3.414-0.048-5.161-0.048c-2.004,0-3.974,0.022-5.906,0.061c-5.453-1.25-14.87-2.076-25.58-2.076
			c-16.868,0-30.544,2.049-30.544,4.576c0,1.859,6.687,1.472,16.101,4.978c1.406,3.106,21.922,5.657,45.93,5.657
			c24.136,0,42.754-3.361,44.017-6.517C230.874,311.982,239.146,313.166,239.146,311.354z"/>
		<path fill="#777777" d="M238.868,311.363c0-2.516-13.614-4.555-30.406-4.555c-10.622,0-19.967,0.816-25.404,2.053
			c-1.687-0.031-3.398-0.047-5.137-0.047c-1.996,0-3.956,0.022-5.88,0.061c-5.428-1.245-14.802-2.066-25.464-2.066
			c-16.792,0-30.406,2.039-30.406,4.555c0,1.852,6.646,1.441,16.004,4.965c1.411,3.086,21.846,5.622,45.746,5.622
			c24.027,0,42.549-3.352,43.818-6.487C230.619,311.957,238.868,313.167,238.868,311.363z"/>
		<path fill="#767676" d="M238.591,311.373c0-2.505-13.552-4.535-30.269-4.535c-10.574,0-19.877,0.813-25.29,2.045
			c-1.679-0.031-3.383-0.047-5.114-0.047c-1.987,0-3.938,0.021-5.854,0.06c-5.404-1.239-14.735-2.058-25.349-2.058
			c-16.717,0-30.269,2.03-30.269,4.535c0,1.843,6.608,1.411,15.909,4.952c1.415,3.066,21.77,5.587,45.562,5.587
			c23.917,0,42.345-3.342,43.619-6.458C230.363,311.931,238.591,313.169,238.591,311.373z"/>
		<path fill="#757575" d="M238.313,311.383c0-2.494-13.491-4.514-30.132-4.514c-10.525,0-19.786,0.809-25.174,2.034
			c-1.671-0.03-3.367-0.047-5.091-0.047c-1.978,0-3.92,0.022-5.827,0.061c-5.379-1.233-14.669-2.048-25.234-2.048
			c-16.641,0-30.131,2.02-30.131,4.514c0,1.834,6.57,1.381,15.813,4.939c1.421,3.047,21.695,5.551,45.379,5.551
			c23.809,0,42.141-3.331,43.421-6.428C230.108,311.905,238.313,313.17,238.313,311.383z"/>
		<path fill="#747474" d="M238.036,311.393c0-2.482-13.43-4.494-29.994-4.494c-10.478,0-19.696,0.806-25.059,2.025
			c-1.664-0.029-3.352-0.046-5.068-0.046c-1.969,0-3.902,0.022-5.801,0.06c-5.354-1.228-14.602-2.039-25.119-2.039
			c-16.565,0-29.994,2.012-29.994,4.494c0,1.826,6.532,1.35,15.719,4.926c1.425,3.027,21.619,5.518,45.195,5.518
			c23.7,0,41.937-3.322,43.223-6.399C229.854,311.879,238.036,313.172,238.036,311.393z"/>
		<path fill="#737373" d="M237.759,311.402c0-2.471-13.368-4.474-29.856-4.474c-10.43,0-19.606,0.802-24.944,2.017
			c-1.656-0.03-3.337-0.046-5.045-0.046c-1.96,0-3.884,0.021-5.774,0.06c-5.33-1.223-14.534-2.03-25.004-2.03
			c-16.489,0-29.856,2.003-29.856,4.474c0,1.817,6.493,1.32,15.624,4.913c1.43,3.008,21.543,5.481,45.011,5.481
			c23.592,0,41.733-3.312,43.025-6.369C229.599,311.854,237.759,313.173,237.759,311.402z"/>
		<path fill="#727272" d="M237.481,311.412c0-2.46-13.307-4.453-29.72-4.453c-10.381,0-19.515,0.799-24.829,2.007
			c-1.648-0.029-3.321-0.046-5.021-0.046c-1.951,0-3.867,0.021-5.748,0.06c-5.306-1.216-14.468-2.021-24.889-2.021
			c-16.413,0-29.719,1.993-29.719,4.453c0,1.809,6.455,1.289,15.528,4.9c1.435,2.988,21.468,5.446,44.828,5.446
			c23.483,0,41.529-3.302,42.827-6.341C229.344,311.828,237.481,313.175,237.481,311.412z"/>
		<path fill="#717171" d="M237.204,311.422c0-2.448-13.245-4.433-29.582-4.433c-10.333,0-19.425,0.795-24.715,1.998
			c-1.641-0.029-3.306-0.046-4.998-0.046c-1.941,0-3.849,0.021-5.72,0.059c-5.281-1.211-14.401-2.011-24.774-2.011
			c-16.337,0-29.581,1.984-29.581,4.433c0,1.801,6.415,1.259,15.433,4.887c1.438,2.969,21.391,5.412,44.643,5.412
			c23.375,0,41.325-3.293,42.629-6.311C229.088,311.802,237.204,313.176,237.204,311.422z"/>
		<path fill="#707070" d="M236.926,311.432c0-2.438-13.183-4.412-29.443-4.412c-10.285,0-19.335,0.791-24.6,1.988
			c-1.634-0.029-3.291-0.045-4.975-0.045c-1.933,0-3.831,0.021-5.694,0.059c-5.256-1.206-14.333-2.002-24.658-2.002
			c-16.262,0-29.444,1.975-29.444,4.412c0,1.792,6.377,1.229,15.337,4.875c1.443,2.948,21.316,5.376,44.459,5.376
			c23.266,0,41.121-3.283,42.43-6.282C228.833,311.775,236.926,313.178,236.926,311.432z"/>
		<path fill="#6F6F6F" d="M236.649,311.441c0-2.426-13.122-4.392-29.307-4.392c-10.237,0-19.245,0.787-24.485,1.979
			c-1.626-0.029-3.275-0.045-4.952-0.045c-1.923,0-3.812,0.021-5.667,0.058c-5.231-1.2-14.267-1.992-24.543-1.992
			c-16.186,0-29.307,1.966-29.307,4.392c0,1.783,6.338,1.198,15.241,4.861c1.448,2.93,21.24,5.342,44.276,5.342
			c23.158,0,40.917-3.273,42.233-6.252C228.578,311.75,236.649,313.18,236.649,311.441z"/>
		<path fill="#6E6E6E" d="M236.371,311.45c0-2.413-13.06-4.37-29.168-4.37c-10.19,0-19.154,0.783-24.371,1.971
			c-1.618-0.029-3.259-0.046-4.928-0.046c-1.915,0-3.795,0.021-5.641,0.059c-5.208-1.194-14.2-1.983-24.428-1.983
			c-16.109,0-29.169,1.957-29.169,4.37c0,1.776,6.3,1.169,15.146,4.85c1.452,2.909,21.164,5.307,44.092,5.307
			c23.049,0,40.713-3.264,42.034-6.224C228.323,311.725,236.371,313.181,236.371,311.45z"/>
		<path fill="#6D6D6D" d="M236.095,311.461c0-2.403-12.999-4.35-29.032-4.35c-10.142,0-19.064,0.779-24.255,1.96
			c-1.61-0.029-3.244-0.045-4.905-0.045c-1.905,0-3.777,0.021-5.615,0.058c-5.182-1.188-14.132-1.973-24.313-1.973
			c-16.033,0-29.031,1.946-29.031,4.35c0,1.767,6.262,1.138,15.051,4.835c1.457,2.891,21.089,5.272,43.908,5.272
			c22.939,0,40.509-3.254,41.836-6.194C228.068,311.698,236.095,313.183,236.095,311.461z"/>
		<path fill="#6C6C6C" d="M235.816,311.471c0-2.392-12.936-4.33-28.894-4.33c-10.094,0-18.974,0.776-24.14,1.951
			c-1.603-0.029-3.229-0.044-4.882-0.044c-1.896,0-3.759,0.021-5.588,0.058c-5.158-1.184-14.066-1.965-24.198-1.965
			c-15.957,0-28.894,1.938-28.894,4.33c0,1.758,6.223,1.107,14.956,4.822c1.461,2.871,21.012,5.237,43.724,5.237
			c22.831,0,40.305-3.244,41.639-6.165C227.812,311.672,235.816,313.184,235.816,311.471z"/>
		<path fill="#6B6B6B" d="M235.539,311.479c0-2.38-12.875-4.308-28.756-4.308c-10.046,0-18.884,0.771-24.025,1.941
			c-1.596-0.029-3.214-0.045-4.859-0.045c-1.887,0-3.742,0.021-5.562,0.058c-5.133-1.177-13.999-1.954-24.083-1.954
			c-15.882,0-28.757,1.928-28.757,4.308c0,1.751,6.184,1.078,14.86,4.811c1.466,2.851,20.937,5.202,43.541,5.202
			c22.722,0,40.101-3.234,41.44-6.136C227.558,311.646,235.539,313.186,235.539,311.479z"/>
		<path fill="#6A6A6A" d="M235.262,311.489c0-2.368-12.812-4.288-28.619-4.288c-9.997,0-18.793,0.769-23.91,1.934
			c-1.587-0.029-3.198-0.045-4.835-0.045c-1.879,0-3.724,0.021-5.535,0.057c-5.109-1.171-13.932-1.945-23.968-1.945
			c-15.805,0-28.619,1.92-28.619,4.288c0,1.742,6.145,1.048,14.764,4.798c1.471,2.831,20.861,5.166,43.357,5.166
			c22.613,0,39.896-3.224,41.241-6.105C227.303,311.621,235.262,313.187,235.262,311.489z"/>
		<path fill="#696969" d="M234.984,311.499c0-2.357-12.752-4.267-28.481-4.267c-9.949,0-18.703,0.764-23.796,1.923
			c-1.58-0.028-3.183-0.044-4.812-0.044c-1.869,0-3.705,0.021-5.508,0.057c-5.084-1.166-13.865-1.936-23.852-1.936
			c-15.73,0-28.482,1.909-28.482,4.267c0,1.733,6.107,1.017,14.67,4.785c1.475,2.812,20.785,5.132,43.172,5.132
			c22.506,0,39.693-3.215,41.045-6.077C227.048,311.595,234.984,313.188,234.984,311.499z"/>
		<path fill="#686868" d="M234.707,311.509c0-2.346-12.69-4.247-28.344-4.247c-9.901,0-18.612,0.762-23.681,1.915
			c-1.572-0.029-3.167-0.045-4.789-0.045c-1.86,0-3.688,0.021-5.481,0.057c-5.06-1.16-13.798-1.927-23.737-1.927
			c-15.653,0-28.344,1.901-28.344,4.247c0,1.726,6.068,0.987,14.574,4.771c1.48,2.792,20.71,5.097,42.989,5.097
			c22.397,0,39.49-3.205,40.845-6.047C226.793,311.569,234.707,313.19,234.707,311.509z"/>
		<path fill="#676767" d="M234.43,311.519c0-2.335-12.629-4.227-28.207-4.227c-9.853,0-18.521,0.758-23.565,1.905
			c-1.564-0.028-3.152-0.044-4.766-0.044c-1.852,0-3.67,0.021-5.455,0.057c-5.035-1.155-13.731-1.918-23.622-1.918
			c-15.578,0-28.207,1.892-28.207,4.227c0,1.717,6.03,0.956,14.479,4.759c1.483,2.772,20.634,5.062,42.805,5.062
			c22.288,0,39.285-3.195,40.647-6.018C226.538,311.543,234.43,313.191,234.43,311.519z"/>
		<path fill="#666666" d="M234.152,311.528c0-2.323-12.567-4.206-28.069-4.206c-9.806,0-18.432,0.754-23.451,1.896
			c-1.557-0.027-3.137-0.043-4.742-0.043c-1.843,0-3.652,0.021-5.429,0.056c-5.011-1.148-13.664-1.908-23.507-1.908
			c-15.501,0-28.069,1.883-28.069,4.206c0,1.708,5.991,0.926,14.384,4.746c1.489,2.752,20.558,5.026,42.621,5.026
			c22.18,0,39.081-3.186,40.449-5.988C226.283,311.518,234.152,313.193,234.152,311.528z"/>
		<path fill="#656565" d="M233.875,311.538c0-2.312-12.506-4.186-27.932-4.186c-9.758,0-18.342,0.751-23.336,1.887
			c-1.549-0.028-3.122-0.044-4.719-0.044c-1.833,0-3.634,0.021-5.402,0.057c-4.986-1.144-13.597-1.899-23.392-1.899
			c-15.426,0-27.932,1.874-27.932,4.186c0,1.7,5.953,0.896,14.288,4.733c1.494,2.732,20.482,4.991,42.438,4.991
			c22.071,0,38.877-3.176,40.251-5.96C226.027,311.491,233.875,313.194,233.875,311.538z"/>
		<path fill="#646464" d="M233.598,311.548c0-2.301-12.444-4.165-27.795-4.165c-9.709,0-18.25,0.747-23.221,1.877
			c-1.542-0.027-3.106-0.043-4.696-0.043c-1.824,0-3.616,0.021-5.375,0.056c-4.962-1.138-13.53-1.89-23.277-1.89
			c-15.35,0-27.793,1.864-27.793,4.165c0,1.691,5.913,0.865,14.192,4.72c1.497,2.714,20.406,4.957,42.253,4.957
			c21.963,0,38.674-3.166,40.054-5.93C225.772,311.466,233.598,313.196,233.598,311.548z"/>
		<path fill="#636363" d="M233.32,311.557c0-2.289-12.383-4.143-27.657-4.143c-9.661,0-18.161,0.742-23.106,1.867
			c-1.534-0.027-3.091-0.043-4.672-0.043c-1.815,0-3.598,0.021-5.349,0.055c-4.937-1.131-13.463-1.879-23.161-1.879
			c-15.274,0-27.656,1.854-27.656,4.143c0,1.684,5.875,0.836,14.097,4.708c1.502,2.694,20.331,4.922,42.07,4.922
			c21.853,0,38.469-3.156,39.855-5.9C225.518,311.439,233.32,313.197,233.32,311.557z"/>
		<path fill="#626262" d="M233.043,311.566c0-2.277-12.321-4.123-27.52-4.123c-9.613,0-18.07,0.739-22.991,1.859
			c-1.527-0.028-3.076-0.043-4.649-0.043c-1.807,0-3.581,0.02-5.323,0.055c-4.913-1.127-13.396-1.871-23.046-1.871
			c-15.198,0-27.519,1.846-27.519,4.123c0,1.676,5.836,0.806,14.001,4.695c1.507,2.674,20.255,4.887,41.886,4.887
			c21.744,0,38.265-3.146,39.656-5.871C225.263,311.414,233.043,313.199,233.043,311.566z"/>
		<path fill="#616161" d="M232.766,311.577c0-2.267-12.26-4.103-27.382-4.103c-9.565,0-17.98,0.734-22.877,1.849
			c-1.519-0.027-3.06-0.042-4.626-0.042c-1.797,0-3.562,0.02-5.295,0.055c-4.888-1.122-13.329-1.861-22.931-1.861
			c-15.122,0-27.382,1.836-27.382,4.103c0,1.666,5.798,0.774,13.907,4.681c1.512,2.655,20.179,4.852,41.702,4.852
			c21.636,0,38.061-3.136,39.459-5.842C225.008,311.389,232.766,313.201,232.766,311.577z"/>
		<path fill="#606060" d="M232.488,311.586c0-2.254-12.198-4.082-27.244-4.082c-9.518,0-17.891,0.731-22.762,1.84
			c-1.512-0.027-3.044-0.042-4.604-0.042c-1.788,0-3.544,0.021-5.269,0.055c-4.864-1.115-13.263-1.853-22.816-1.853
			c-15.046,0-27.245,1.828-27.245,4.082c0,1.658,5.759,0.745,13.812,4.669c1.516,2.636,20.103,4.816,41.518,4.816
			c21.528,0,37.858-3.126,39.261-5.812C224.753,311.362,232.488,313.202,232.488,311.586z"/>
		<path fill="#5F5F5F" d="M232.211,311.596c0-2.243-12.137-4.061-27.107-4.061c-9.469,0-17.8,0.728-22.647,1.83
			c-1.503-0.027-3.029-0.042-4.58-0.042c-1.779,0-3.526,0.02-5.243,0.054c-4.838-1.109-13.195-1.842-22.701-1.842
			c-14.97,0-27.107,1.817-27.107,4.061c0,1.65,5.721,0.715,13.716,4.656c1.521,2.615,20.028,4.781,41.334,4.781
			c21.419,0,37.653-3.117,39.062-5.783C224.497,311.336,232.211,313.204,232.211,311.596z"/>
		<path fill="#5E5E5E" d="M231.934,311.605c0-2.232-12.075-4.04-26.97-4.04c-9.421,0-17.709,0.724-22.532,1.821
			c-1.497-0.027-3.014-0.042-4.557-0.042c-1.77,0-3.509,0.02-5.216,0.054c-4.814-1.104-13.128-1.833-22.586-1.833
			c-14.894,0-26.969,1.808-26.969,4.04c0,1.642,5.682,0.684,13.621,4.644c1.525,2.596,19.952,4.746,41.15,4.746
			c21.311,0,37.449-3.107,38.864-5.753C224.242,311.311,231.934,313.205,231.934,311.605z"/>
		<path fill="#5D5D5D" d="M231.656,311.615c0-2.221-12.014-4.021-26.832-4.021c-9.373,0-17.62,0.721-22.417,1.812
			c-1.489-0.027-2.999-0.042-4.534-0.042c-1.761,0-3.491,0.02-5.189,0.054c-4.79-1.099-13.062-1.824-22.471-1.824
			c-14.818,0-26.831,1.8-26.831,4.021c0,1.634,5.643,0.654,13.525,4.631c1.53,2.576,19.876,4.711,40.966,4.711
			c21.202,0,37.245-3.098,38.666-5.725C223.987,311.284,231.656,313.207,231.656,311.615z"/>
		<path fill="#5C5C5C" d="M231.379,311.625c0-2.209-11.952-3.999-26.694-3.999c-9.325,0-17.529,0.716-22.303,1.803
			c-1.48-0.027-2.983-0.042-4.51-0.042c-1.752,0-3.473,0.02-5.163,0.054c-4.765-1.093-12.995-1.814-22.355-1.814
			c-14.742,0-26.694,1.79-26.694,3.999c0,1.625,5.605,0.623,13.43,4.618c1.534,2.556,19.8,4.676,40.783,4.676
			c21.093,0,37.042-3.088,38.468-5.695C223.732,311.259,231.379,313.208,231.379,311.625z"/>
		<path fill="#5B5B5B" d="M231.101,311.635c0-2.198-11.89-3.979-26.557-3.979c-9.276,0-17.438,0.714-22.188,1.794
			c-1.473-0.026-2.968-0.041-4.487-0.041c-1.743,0-3.455,0.02-5.136,0.053c-4.74-1.087-12.928-1.806-22.24-1.806
			c-14.667,0-26.557,1.781-26.557,3.979c0,1.616,5.566,0.593,13.334,4.604c1.539,2.537,19.724,4.642,40.599,4.642
			c20.985,0,36.837-3.078,38.27-5.666C223.478,311.232,231.101,313.21,231.101,311.635z"/>
		<path fill="#5A5A5A" d="M230.824,311.645c0-2.187-11.829-3.959-26.42-3.959c-9.229,0-17.349,0.71-22.073,1.784
			c-1.465-0.026-2.953-0.04-4.463-0.04c-1.734,0-3.438,0.02-5.11,0.053c-4.716-1.082-12.861-1.797-22.125-1.797
			c-14.59,0-26.419,1.772-26.419,3.959c0,1.607,5.528,0.562,13.239,4.592c1.543,2.517,19.649,4.605,40.416,4.605
			c20.875,0,36.633-3.067,38.071-5.636C223.222,311.207,230.824,313.211,230.824,311.645z"/>
		<path fill="#595959" d="M230.546,311.654c0-2.176-11.767-3.938-26.281-3.938c-9.182,0-17.259,0.705-21.958,1.774
			c-1.458-0.026-2.938-0.04-4.441-0.04c-1.725,0-3.419,0.019-5.083,0.052c-4.692-1.076-12.794-1.786-22.01-1.786
			c-14.515,0-26.282,1.762-26.282,3.938c0,1.6,5.489,0.532,13.144,4.579c1.548,2.497,19.573,4.571,40.231,4.571
			c20.767,0,36.43-3.059,37.874-5.607C222.967,311.181,230.546,313.213,230.546,311.654z"/>
		<path fill="#585858" d="M230.27,311.664c0-2.164-11.706-3.918-26.145-3.918c-9.134,0-17.168,0.703-21.843,1.766
			c-1.45-0.025-2.922-0.04-4.417-0.04c-1.716,0-3.401,0.019-5.057,0.052c-4.667-1.07-12.727-1.777-21.895-1.777
			c-14.438,0-26.145,1.754-26.145,3.918c0,1.592,5.45,0.502,13.048,4.566c1.552,2.478,19.498,4.535,40.047,4.535
			c20.658,0,36.226-3.048,37.676-5.577C222.712,311.155,230.27,313.215,230.27,311.664z"/>
		<path fill="#575757" d="M229.991,311.674c0-2.153-11.644-3.896-26.007-3.896c-9.085,0-17.078,0.697-21.728,1.756
			c-1.442-0.026-2.907-0.04-4.394-0.04c-1.707,0-3.384,0.019-5.03,0.052c-4.643-1.064-12.66-1.768-21.78-1.768
			c-14.363,0-26.006,1.743-26.006,3.896c0,1.583,5.412,0.472,12.952,4.553c1.558,2.458,19.421,4.501,39.864,4.501
			c20.55,0,36.021-3.038,37.478-5.548C222.457,311.13,229.991,313.216,229.991,311.674z"/>
		<path fill="#565656" d="M229.714,311.683c0-2.141-11.582-3.876-25.869-3.876c-9.037,0-16.987,0.695-21.613,1.747
			c-1.435-0.025-2.892-0.039-4.371-0.039c-1.698,0-3.365,0.019-5.003,0.051c-4.618-1.059-12.593-1.759-21.665-1.759
			c-14.287,0-25.869,1.735-25.869,3.876c0,1.575,5.373,0.442,12.857,4.541c1.562,2.438,19.346,4.466,39.68,4.466
			c20.441,0,35.817-3.029,37.279-5.519C222.202,311.104,229.714,313.217,229.714,311.683z"/>
		<path fill="#555555" d="M229.437,311.693c0-2.13-11.521-3.855-25.731-3.855c-8.989,0-16.897,0.69-21.499,1.737
			c-1.427-0.026-2.875-0.04-4.347-0.04c-1.689,0-3.348,0.02-4.977,0.052c-4.593-1.054-12.526-1.749-21.549-1.749
			c-14.211,0-25.731,1.726-25.731,3.855c0,1.565,5.334,0.411,12.762,4.527c1.566,2.418,19.27,4.431,39.496,4.431
			c20.333,0,35.614-3.02,37.081-5.489C221.947,311.077,229.437,313.219,229.437,311.693z"/>
		<path fill="#545454" d="M229.159,311.703c0-2.119-11.46-3.835-25.595-3.835c-8.94,0-16.807,0.687-21.383,1.728
			c-1.42-0.025-2.86-0.039-4.325-0.039c-1.68,0-3.33,0.019-4.95,0.051c-4.569-1.048-12.46-1.739-21.435-1.739
			c-14.135,0-25.594,1.716-25.594,3.835c0,1.557,5.295,0.381,12.666,4.514c1.571,2.4,19.195,4.396,39.312,4.396
			c20.224,0,35.41-3.01,36.883-5.461C221.692,311.052,229.159,313.221,229.159,311.703z"/>
		<path fill="#535353" d="M228.882,311.712c0-2.106-11.397-3.813-25.457-3.813c-8.893,0-16.717,0.684-21.269,1.719
			c-1.412-0.025-2.845-0.04-4.301-0.04c-1.671,0-3.312,0.02-4.924,0.052c-4.544-1.042-12.393-1.73-21.319-1.73
			c-14.059,0-25.457,1.707-25.457,3.813c0,1.55,5.257,0.351,12.571,4.502c1.576,2.38,19.119,4.361,39.129,4.361
			c20.115,0,35.205-3,36.685-5.431C221.438,311.026,228.882,313.222,228.882,311.712z"/>
		<path fill="#525252" d="M228.604,311.722c0-2.096-11.336-3.793-25.319-3.793c-8.845,0-16.626,0.68-21.154,1.71
			c-1.405-0.026-2.83-0.04-4.278-0.04c-1.662,0-3.294,0.019-4.896,0.051c-4.521-1.037-12.326-1.721-21.204-1.721
			c-13.983,0-25.32,1.697-25.32,3.793c0,1.542,5.219,0.321,12.476,4.489c1.581,2.36,19.042,4.326,38.945,4.326
			c20.007,0,35.001-2.99,36.486-5.401C221.182,311,228.604,313.224,228.604,311.722z"/>
		<path fill="#515151" d="M228.327,311.731c0-2.084-11.274-3.772-25.182-3.772c-8.797,0-16.537,0.676-21.04,1.7
			c-1.397-0.025-2.814-0.039-4.254-0.039c-1.653,0-3.276,0.019-4.87,0.051c-4.496-1.031-12.259-1.712-21.089-1.712
			c-13.907,0-25.182,1.688-25.182,3.772c0,1.533,5.18,0.29,12.38,4.477c1.584,2.34,18.967,4.291,38.761,4.291
			c19.898,0,34.798-2.98,36.289-5.372C220.927,310.974,228.327,313.226,228.327,311.731z"/>
		<path fill="#505050" d="M228.05,311.741c0-2.073-11.213-3.752-25.044-3.752c-8.75,0-16.446,0.672-20.924,1.691
			c-1.39-0.025-2.799-0.039-4.232-0.039c-1.644,0-3.258,0.018-4.844,0.05c-4.471-1.025-12.191-1.702-20.974-1.702
			c-13.831,0-25.044,1.679-25.044,3.752c0,1.524,5.141,0.26,12.285,4.463c1.589,2.321,18.891,4.257,38.577,4.257
			c19.789,0,34.594-2.971,36.091-5.344C220.672,310.948,228.05,313.227,228.05,311.741z"/>
		<path fill="#4F4F4F" d="M227.772,311.751c0-2.062-11.151-3.731-24.907-3.731c-8.701,0-16.355,0.669-20.809,1.682
			c-1.382-0.025-2.783-0.038-4.208-0.038c-1.634,0-3.24,0.018-4.816,0.049c-4.447-1.02-12.125-1.692-20.859-1.692
			c-13.755,0-24.906,1.67-24.906,3.731c0,1.516,5.103,0.229,12.189,4.45c1.594,2.302,18.816,4.222,38.393,4.222
			c19.681,0,34.39-2.961,35.893-5.314C220.417,310.922,227.772,313.229,227.772,311.751z"/>
		<path fill="#4E4E4E" d="M227.495,311.761c0-2.05-11.09-3.711-24.77-3.711c-8.653,0-16.265,0.664-20.694,1.673
			c-1.375-0.025-2.768-0.039-4.186-0.039c-1.625,0-3.223,0.019-4.79,0.05c-4.422-1.015-12.058-1.684-20.743-1.684
			c-13.68,0-24.77,1.661-24.77,3.711c0,1.507,5.064,0.199,12.094,4.438c1.599,2.281,18.74,4.187,38.209,4.187
			c19.572,0,34.187-2.951,35.695-5.285C220.162,310.896,227.495,313.229,227.495,311.761z"/>
		<path fill="#4D4D4D" d="M227.218,311.771c0-2.039-11.028-3.69-24.632-3.69c-8.605,0-16.176,0.661-20.58,1.663
			c-1.367-0.024-2.752-0.038-4.162-0.038c-1.617,0-3.205,0.018-4.764,0.049c-4.397-1.008-11.991-1.674-20.628-1.674
			c-13.604,0-24.632,1.651-24.632,3.69c0,1.499,5.025,0.169,11.999,4.425c1.603,2.262,18.664,4.151,38.025,4.151
			c19.463,0,33.982-2.942,35.497-5.256C219.906,310.871,227.218,313.231,227.218,311.771z"/>
		<path fill="#4C4C4C" d="M226.94,311.78c0-2.028-10.967-3.671-24.495-3.671c-8.556,0-16.084,0.658-20.464,1.654
			c-1.359-0.024-2.737-0.037-4.138-0.037c-1.608,0-3.187,0.018-4.737,0.049c-4.373-1.003-11.924-1.666-20.514-1.666
			c-13.527,0-24.494,1.643-24.494,3.671c0,1.491,4.986,0.139,11.903,4.412c1.607,2.242,18.588,4.115,37.842,4.115
			c19.354,0,33.777-2.932,35.298-5.226C219.651,310.845,226.94,313.232,226.94,311.78z"/>
		<path fill="#4B4B4B" d="M226.663,311.789c0-2.016-10.905-3.648-24.357-3.648c-8.509,0-15.995,0.653-20.35,1.645
			c-1.352-0.024-2.722-0.038-4.115-0.038c-1.599,0-3.169,0.019-4.711,0.049c-4.348-0.997-11.857-1.655-20.398-1.655
			c-13.452,0-24.357,1.633-24.357,3.648c0,1.483,4.949,0.109,11.808,4.399c1.612,2.223,18.513,4.081,37.658,4.081
			c19.246,0,33.573-2.922,35.1-5.196C219.396,310.818,226.663,313.234,226.663,311.789z"/>
		<path fill="#4A4A4A" d="M226.386,311.799c0-2.004-10.844-3.628-24.22-3.628c-8.461,0-15.904,0.649-20.235,1.635
			c-1.344-0.024-2.707-0.037-4.092-0.037c-1.59,0-3.151,0.018-4.685,0.049c-4.323-0.992-11.79-1.646-20.283-1.646
			c-13.375,0-24.219,1.624-24.219,3.628c0,1.475,4.91,0.079,11.712,4.387c1.617,2.203,18.437,4.046,37.474,4.046
			c19.138,0,33.369-2.912,34.902-5.167C219.142,310.793,226.386,313.236,226.386,311.799z"/>
		<path fill="#494949" d="M226.107,311.809c0-1.993-10.781-3.607-24.082-3.607c-8.412,0-15.813,0.646-20.12,1.626
			c-1.335-0.024-2.691-0.037-4.069-0.037c-1.581,0-3.133,0.018-4.657,0.048c-4.299-0.986-11.723-1.637-20.168-1.637
			c-13.3,0-24.082,1.614-24.082,3.607c0,1.466,4.871,0.049,11.617,4.374c1.621,2.183,18.361,4.011,37.29,4.011
			c19.029,0,33.166-2.902,34.704-5.138C218.887,310.768,226.107,313.237,226.107,311.809z"/>
		<path fill="#484848" d="M225.831,311.818c0-1.981-10.721-3.587-23.945-3.587c-8.364,0-15.723,0.643-20.005,1.616
			c-1.328-0.023-2.676-0.037-4.046-0.037c-1.571,0-3.115,0.018-4.631,0.048c-4.274-0.979-11.656-1.627-20.053-1.627
			c-13.224,0-23.944,1.605-23.944,3.587c0,1.457,4.833,0.018,11.521,4.361c1.626,2.164,18.286,3.976,37.106,3.976
			c18.921,0,32.962-2.893,34.506-5.108C218.631,310.741,225.831,313.239,225.831,311.818z"/>
		<path fill="#474747" d="M225.553,311.828c0-1.971-10.658-3.566-23.807-3.566c-8.317,0-15.633,0.639-19.891,1.607
			c-1.32-0.024-2.66-0.037-4.022-0.037c-1.562,0-3.097,0.018-4.604,0.048c-4.25-0.975-11.589-1.618-19.938-1.618
			c-13.148,0-23.807,1.596-23.807,3.566c0,1.449,4.794-0.012,11.427,4.348c1.63,2.145,18.209,3.941,36.922,3.941
			c18.812,0,32.758-2.883,34.308-5.079C218.376,310.715,225.553,313.24,225.553,311.828z"/>
		<path fill="#464646" d="M225.275,311.838c0-1.959-10.598-3.546-23.67-3.546c-8.268,0-15.542,0.636-19.774,1.599
			c-1.313-0.024-2.646-0.037-4-0.037c-1.554,0-3.08,0.018-4.578,0.047c-4.226-0.969-11.523-1.608-19.823-1.608
			c-13.072,0-23.669,1.587-23.669,3.546c0,1.441,4.755-0.043,11.331,4.335c1.635,2.125,18.134,3.906,36.739,3.906
			c18.703,0,32.554-2.873,34.11-5.05C218.121,310.689,225.275,313.242,225.275,311.838z"/>
		<path fill="#454545" d="M224.998,311.848c0-1.948-10.536-3.525-23.532-3.525c-8.22,0-15.453,0.632-19.66,1.589
			c-1.305-0.023-2.63-0.036-3.976-0.036c-1.544,0-3.062,0.017-4.551,0.047c-4.201-0.964-11.456-1.6-19.708-1.6
			c-12.996,0-23.532,1.577-23.532,3.525c0,1.433,4.717-0.073,11.235,4.322c1.64,2.104,18.058,3.87,36.555,3.87
			c18.594,0,32.35-2.862,33.912-5.02C217.866,310.664,224.998,313.243,224.998,311.848z"/>
		<path fill="#444444" d="M224.721,311.857c0-1.937-10.475-3.505-23.395-3.505c-8.172,0-15.362,0.628-19.545,1.58
			c-1.298-0.024-2.615-0.036-3.953-0.036c-1.536,0-3.044,0.017-4.524,0.046c-4.177-0.957-11.389-1.59-19.593-1.59
			c-12.92,0-23.395,1.568-23.395,3.505c0,1.424,4.678-0.104,11.141,4.31c1.644,2.085,17.982,3.835,36.371,3.835
			c18.485,0,32.146-2.853,33.713-4.991C217.611,310.638,224.721,313.245,224.721,311.857z"/>
		<path fill="#434343" d="M224.443,311.867c0-1.925-10.413-3.484-23.257-3.484c-8.125,0-15.272,0.624-19.431,1.57
			c-1.29-0.023-2.599-0.036-3.929-0.036c-1.526,0-3.026,0.017-4.498,0.047c-4.152-0.953-11.322-1.581-19.477-1.581
			c-12.845,0-23.257,1.56-23.257,3.484c0,1.415,4.639-0.134,11.044,4.296c1.649,2.066,17.907,3.801,36.188,3.801
			c18.377,0,31.941-2.844,33.515-4.962C217.356,310.612,224.443,313.247,224.443,311.867z"/>
		<path fill="#424242" d="M224.166,311.877c0-1.914-10.352-3.464-23.119-3.464c-8.077,0-15.182,0.62-19.316,1.562
			c-1.283-0.023-2.584-0.036-3.907-0.036c-1.518,0-3.008,0.017-4.471,0.046c-4.127-0.946-11.255-1.571-19.362-1.571
			c-12.768,0-23.12,1.55-23.12,3.464c0,1.407,4.601-0.164,10.95,4.283c1.653,2.046,17.831,3.766,36.003,3.766
			c18.269,0,31.738-2.834,33.316-4.933C217.102,310.586,224.166,313.248,224.166,311.877z"/>
		<path fill="#414141" d="M223.889,311.887c0-1.902-10.29-3.443-22.982-3.443c-8.028,0-15.091,0.617-19.201,1.552
			c-1.275-0.022-2.568-0.035-3.883-0.035c-1.508,0-2.99,0.017-4.444,0.045c-4.103-0.94-11.188-1.562-19.247-1.562
			c-12.693,0-22.982,1.541-22.982,3.443c0,1.398,4.562-0.194,10.854,4.271c1.658,2.026,17.755,3.73,35.819,3.73
			c18.16,0,31.534-2.824,33.119-4.903C216.846,310.561,223.889,313.25,223.889,311.887z"/>
		<path fill="#404040" d="M223.611,311.896c0-1.892-10.229-3.423-22.845-3.423c-7.98,0-15.001,0.613-19.086,1.542
			c-1.268-0.022-2.553-0.035-3.86-0.035c-1.5,0-2.972,0.018-4.418,0.046c-4.078-0.936-11.121-1.553-19.131-1.553
			c-12.616,0-22.845,1.531-22.845,3.423c0,1.391,4.524-0.225,10.758,4.258c1.663,2.006,17.679,3.695,35.636,3.695
			c18.052,0,31.33-2.814,32.921-4.873C216.591,310.534,223.611,313.251,223.611,311.896z"/>
		<path fill="#3F3F3F" d="M223.334,311.906c0-1.88-10.167-3.402-22.707-3.402c-7.932,0-14.911,0.609-18.972,1.533
			c-1.26-0.023-2.538-0.035-3.836-0.035c-1.491,0-2.955,0.017-4.392,0.045c-4.054-0.93-11.054-1.543-19.016-1.543
			c-12.541,0-22.708,1.522-22.708,3.402c0,1.382,4.485-0.256,10.664,4.245c1.667,1.986,17.603,3.66,35.452,3.66
			c17.943,0,31.125-2.805,32.722-4.845C216.336,310.509,223.334,313.253,223.334,311.906z"/>
		<path fill="#3E3E3E" d="M223.057,311.915c0-1.868-10.105-3.381-22.569-3.381c-7.885,0-14.821,0.605-18.857,1.523
			c-1.252-0.022-2.522-0.034-3.813-0.034c-1.481,0-2.936,0.016-4.365,0.045c-4.029-0.924-10.987-1.534-18.901-1.534
			c-12.464,0-22.57,1.513-22.57,3.381c0,1.374,4.446-0.284,10.568,4.232c1.672,1.968,17.528,3.626,35.268,3.626
			c17.834,0,30.921-2.795,32.524-4.815C216.081,310.482,223.057,313.254,223.057,311.915z"/>
		<path fill="#3D3D3D" d="M222.779,311.925c0-1.856-10.044-3.36-22.433-3.36c-7.836,0-14.73,0.603-18.741,1.515
			c-1.245-0.022-2.507-0.035-3.79-0.035c-1.473,0-2.918,0.017-4.338,0.045c-4.005-0.918-10.92-1.524-18.787-1.524
			c-12.389,0-22.432,1.504-22.432,3.36c0,1.365,4.407-0.315,10.472,4.22c1.676,1.947,17.452,3.591,35.084,3.591
			c17.725,0,30.718-2.786,32.326-4.786C215.826,310.457,222.779,313.256,222.779,311.925z"/>
		<path fill="#3C3C3C" d="M222.502,311.936c0-1.846-9.982-3.341-22.295-3.341c-7.788,0-14.64,0.599-18.626,1.505
			c-1.237-0.022-2.492-0.034-3.767-0.034c-1.464,0-2.901,0.017-4.312,0.045c-3.98-0.913-10.853-1.516-18.671-1.516
			c-12.312,0-22.294,1.495-22.294,3.341c0,1.356,4.369-0.346,10.377,4.205c1.681,1.929,17.376,3.557,34.9,3.557
			c17.616,0,30.514-2.775,32.128-4.757C215.57,310.432,222.502,313.258,222.502,311.936z"/>
		<path fill="#3B3B3B" d="M222.225,311.944c0-1.834-9.921-3.319-22.157-3.319c-7.741,0-14.55,0.595-18.512,1.496
			c-1.229-0.022-2.476-0.034-3.744-0.034c-1.455,0-2.883,0.016-4.285,0.044c-3.956-0.907-10.786-1.506-18.556-1.506
			c-12.237,0-22.157,1.485-22.157,3.319c0,1.349,4.33-0.376,10.281,4.194c1.686,1.908,17.301,3.52,34.717,3.52
			c17.508,0,30.31-2.765,31.93-4.727C215.315,310.405,222.225,313.259,222.225,311.944z"/>
		<path fill="#3A3A3A" d="M221.947,311.954c0-1.822-9.859-3.299-22.021-3.299c-7.692,0-14.459,0.591-18.396,1.487
			c-1.222-0.022-2.461-0.034-3.72-0.034c-1.446,0-2.865,0.016-4.259,0.043c-3.931-0.901-10.72-1.496-18.441-1.496
			c-12.161,0-22.02,1.477-22.02,3.299c0,1.341,4.292-0.406,10.186,4.181c1.69,1.889,17.225,3.485,34.533,3.485
			c17.399,0,30.106-2.756,31.732-4.697C215.061,310.379,221.947,313.261,221.947,311.954z"/>
		<path fill="#393939" d="M221.669,311.964c0-1.812-9.797-3.278-21.882-3.278c-7.644,0-14.369,0.587-18.282,1.478
			c-1.214-0.022-2.445-0.033-3.697-0.033c-1.436,0-2.847,0.016-4.232,0.043c-3.906-0.896-10.652-1.487-18.326-1.487
			c-12.085,0-21.882,1.467-21.882,3.278c0,1.332,4.253-0.437,10.091,4.168c1.694,1.869,17.149,3.45,34.349,3.45
			c17.291,0,29.902-2.746,31.534-4.668C214.806,310.354,221.669,313.262,221.669,311.964z"/>
		<path fill="#383838" d="M221.393,311.974c0-1.8-9.736-3.258-21.745-3.258c-7.597,0-14.279,0.583-18.167,1.469
			c-1.207-0.022-2.431-0.034-3.674-0.034c-1.427,0-2.829,0.016-4.206,0.043c-3.882-0.89-10.585-1.478-18.21-1.478
			c-12.009,0-21.745,1.458-21.745,3.258c0,1.323,4.215-0.467,9.996,4.155c1.699,1.85,17.073,3.415,34.165,3.415
			c17.182,0,29.698-2.736,31.335-4.639C214.551,310.327,221.393,313.264,221.393,311.974z"/>
		<path fill="#373737" d="M221.114,311.983c0-1.788-9.674-3.237-21.606-3.237c-7.548,0-14.189,0.58-18.053,1.459
			c-1.199-0.021-2.415-0.033-3.651-0.033c-1.418,0-2.811,0.016-4.179,0.043c-3.857-0.885-10.519-1.469-18.096-1.469
			c-11.933,0-21.607,1.449-21.607,3.237c0,1.314,4.177-0.497,9.901,4.142c1.703,1.831,16.997,3.381,33.981,3.381
			c17.074,0,29.495-2.727,31.137-4.61C214.295,310.302,221.114,313.265,221.114,311.983z"/>
		<path fill="#363636" d="M220.838,311.993c0-1.777-9.613-3.217-21.471-3.217c-7.5,0-14.098,0.576-17.937,1.45
			c-1.191-0.022-2.399-0.034-3.628-0.034c-1.409,0-2.793,0.016-4.152,0.043c-3.833-0.879-10.452-1.459-17.98-1.459
			c-11.857,0-21.47,1.439-21.47,3.217c0,1.307,4.138-0.527,9.805,4.129c1.708,1.811,16.922,3.346,33.797,3.346
			c16.965,0,29.29-2.717,30.94-4.58C214.04,310.275,220.838,313.267,220.838,311.993z"/>
		<path fill="#353535" d="M220.56,312.003c0-1.767-9.551-3.196-21.332-3.196c-7.452,0-14.008,0.572-17.823,1.44
			c-1.183-0.021-2.384-0.033-3.604-0.033c-1.4,0-2.776,0.016-4.126,0.043c-3.808-0.873-10.384-1.45-17.865-1.45
			c-11.781,0-21.332,1.43-21.332,3.196c0,1.298,4.099-0.558,9.709,4.116c1.713,1.791,16.846,3.311,33.614,3.311
			c16.856,0,29.086-2.707,30.741-4.551C213.786,310.25,220.56,313.268,220.56,312.003z"/>
		<path fill="#343434" d="M220.282,312.013c0-1.755-9.489-3.176-21.194-3.176c-7.404,0-13.918,0.569-17.708,1.432
			c-1.176-0.021-2.369-0.033-3.581-0.033c-1.391,0-2.757,0.016-4.099,0.042c-3.784-0.868-10.318-1.44-17.75-1.44
			c-11.706,0-21.195,1.421-21.195,3.176c0,1.29,4.061-0.589,9.614,4.104c1.717,1.771,16.77,3.275,33.43,3.275
			c16.747,0,28.882-2.697,30.543-4.521C213.53,310.224,220.282,313.27,220.282,312.013z"/>
		<path fill="#333333" d="M220.005,312.021c0-1.742-9.428-3.154-21.057-3.154c-7.356,0-13.828,0.565-17.593,1.422
			c-1.168-0.021-2.354-0.032-3.558-0.032c-1.383,0-2.74,0.015-4.073,0.041c-3.759-0.861-10.251-1.431-17.635-1.431
			c-11.629,0-21.058,1.412-21.058,3.154c0,1.282,4.021-0.617,9.519,4.091c1.722,1.752,16.694,3.241,33.246,3.241
			c16.638,0,28.677-2.688,30.345-4.493C213.275,310.198,220.005,313.271,220.005,312.021z"/>
		<path fill="#323232" d="M219.728,312.031c0-1.731-9.366-3.134-20.919-3.134c-7.309,0-13.738,0.562-17.479,1.412
			c-1.161-0.021-2.338-0.032-3.535-0.032c-1.374,0-2.722,0.016-4.046,0.042c-3.734-0.856-10.184-1.422-17.519-1.422
			c-11.554,0-20.92,1.402-20.92,3.134c0,1.273,3.983-0.648,9.423,4.078c1.727,1.732,16.619,3.206,33.062,3.206
			c16.53,0,28.474-2.678,30.147-4.464C213.021,310.173,219.728,313.272,219.728,312.031z"/>
		<path fill="#313131" d="M219.45,312.041c0-1.72-9.305-3.113-20.782-3.113c-7.26,0-13.647,0.558-17.363,1.403
			c-1.153-0.021-2.323-0.032-3.512-0.032c-1.364,0-2.704,0.016-4.019,0.041c-3.71-0.851-10.117-1.412-17.404-1.412
			c-11.478,0-20.783,1.394-20.783,3.113c0,1.265,3.945-0.678,9.328,4.065c1.731,1.713,16.543,3.17,32.878,3.17
			c16.422,0,28.271-2.667,29.949-4.434C212.766,310.146,219.45,313.274,219.45,312.041z"/>
		<path fill="#303030" d="M219.173,312.051c0-1.709-9.243-3.093-20.645-3.093c-7.212,0-13.557,0.554-17.249,1.394
			c-1.146-0.021-2.307-0.031-3.488-0.031c-1.355,0-2.686,0.015-3.993,0.041c-3.686-0.846-10.05-1.403-17.289-1.403
			c-11.402,0-20.645,1.384-20.645,3.093c0,1.257,3.906-0.709,9.232,4.053c1.736,1.692,16.467,3.136,32.694,3.136
			c16.313,0,28.066-2.659,29.75-4.405C212.511,310.121,219.173,313.275,219.173,312.051z"/>
		<path fill="#2F2F2F" d="M218.896,312.061c0-1.697-9.182-3.072-20.507-3.072c-7.164,0-13.467,0.55-17.134,1.385
			c-1.138-0.021-2.292-0.032-3.465-0.032c-1.346,0-2.667,0.016-3.966,0.041c-3.661-0.839-9.983-1.394-17.174-1.394
			c-11.326,0-20.507,1.375-20.507,3.072c0,1.248,3.867-0.738,9.137,4.04c1.741,1.673,16.391,3.1,32.511,3.1
			c16.205,0,27.863-2.648,29.553-4.375C212.255,310.095,218.896,313.277,218.896,312.061z"/>
		<path fill="#2E2E2E" d="M218.618,312.07c0-1.687-9.12-3.052-20.37-3.052c-7.116,0-13.376,0.547-17.018,1.375
			c-1.13-0.021-2.277-0.031-3.442-0.031c-1.337,0-2.65,0.015-3.94,0.041c-3.636-0.834-9.916-1.385-17.059-1.385
			c-11.25,0-20.37,1.365-20.37,3.052c0,1.24,3.829-0.77,9.042,4.026c1.745,1.653,16.315,3.066,32.327,3.066
			c16.096,0,27.658-2.64,29.354-4.347C212,310.069,218.618,313.278,218.618,312.07z"/>
		<path fill="#2D2D2D" d="M218.341,312.08c0-1.675-9.059-3.031-20.232-3.031c-7.068,0-13.286,0.543-16.904,1.366
			c-1.123-0.021-2.261-0.031-3.418-0.031c-1.328,0-2.632,0.015-3.913,0.04c-3.612-0.828-9.849-1.375-16.944-1.375
			c-11.174,0-20.232,1.356-20.232,3.031c0,1.231,3.79-0.8,8.946,4.014c1.75,1.634,16.24,3.03,32.143,3.03
			c15.987,0,27.454-2.629,29.156-4.316C211.745,310.043,218.341,313.28,218.341,312.08z"/>
	</g>
	<rect x="-84" y="216.668" fill="#FFFFFF" width="0" height="0.666"/>
	<rect x="101.187" y="316.001" fill="#FFFFFF" width="0.169" height="0.667"/>
</g>
<g id="Layer_6">
	<path fill="#FF0636" stroke="#000000" stroke-width="2" stroke-miterlimit="10" d="M162.02,302.123
		c-7.892,2.722-14.93,1.896-24.408,0s-22.104-17.062-29.062-21.327s-7.432,0.476-9.327,1.896s8.057,22.274,15.166,24.17
		s43.603,6.161,54.977,4.266s10.899-1.422,8.53-4.266S168.893,299.753,162.02,302.123z"/>
	<path fill="#FF0636" stroke="#000000" stroke-width="2" stroke-miterlimit="10" d="M193.232,302.123
		c7.892,2.722,14.93,1.896,24.408,0s22.104-17.062,29.062-21.327s7.432,0.476,9.327,1.896s-8.057,22.274-15.166,24.17
		s-43.603,6.161-54.977,4.266s-10.899-1.422-8.53-4.266S186.359,299.753,193.232,302.123z"/>
	<path fill="#FF0636" stroke="#000000" stroke-width="2" stroke-miterlimit="10" d="M165.406,305.719
		c0.755,0.679,7.75,1.469,7.406-0.25s-7.25-1.281-7.594-1S165.171,305.508,165.406,305.719z"/>
</g>
<g id="Layer_5">
	<g>
		<line fill="#FFFD47" stroke="#000000" stroke-miterlimit="10" x1="169.365" y1="306.862" x2="154.673" y2="254.73"/>
		<path fill="#FFFD47" stroke="#000000" stroke-miterlimit="10" d="M166.405,305.883l-14.138-50.475l4.812-1.355l14.692,52.132
			c0,0-2.118,0.364-2.828,0.319C168.291,306.462,166.405,305.883,166.405,305.883z"/>
	</g>
	<path stroke="#000000" stroke-miterlimit="10" d="M182.202,305.354c-0.382,1.705,6.375,3.524,7.3,2.249
		c1.187-1.636-3.571-3.678-4.748-3.679C183.389,303.923,182.341,304.734,182.202,305.354z"/>
	<g>
		<line fill="#FFFD47" stroke="#000000" stroke-miterlimit="10" x1="185.587" y1="307.338" x2="203.77" y2="262.314"/>
		<path fill="#FFFD47" stroke="#000000" stroke-miterlimit="10" d="M187.905,307.274c0,0-1.889-0.334-2.479-0.572
			c-0.583-0.236-2.157-1.301-2.157-1.301l18.182-44.023l4.637,1.873L187.905,307.274z"/>
	</g>
</g>
<g id="Layer_2">
	<path fill="#0EFF77" stroke="#000000" stroke-width="2" stroke-miterlimit="10" d="M174.41,173.141c0,0-29.775-1.385-41.148,17.572
		c-11.375,18.957-16.546,25.611-13.702,43.146s21.82,50.244,23.242,51.192s1.909-16.726,1.909-16.726l1.992,12.942
		c0,0,3.228-14.503,3.228-12.938s4.268,16.768,4.268,16.768l3.792-16.768l2.844,9.67c0,0,5.688-9.812,5.688-9.669
		s4.266,13.487,4.266,16.768s3.791-13.781,3.791-13.781l3.792,14.2l2.341-7.518l3.289-3.839V282l2.177,5.432l5.833-11.375
		l2.99,9.479V276l4,11.432V276l2,4.796V273l4,14.432V293l3-12.678V287l2.821-12.839l2.969,9.479c0,0,19.425-33.095,13.332-76.304
		C221.909,170.369,174.41,173.141,174.41,173.141z"/>
</g>
<g id="Layer_3">
	
		<line fill="none" stroke="#000000" stroke-width="4" stroke-linecap="round" stroke-miterlimit="10" x1="101.355" y1="192.882" x2="129.555" y2="214.92"/>
	<path fill="none" stroke="#000000" stroke-width="4" stroke-miterlimit="10" d="M129.555,214.92"/>
	<path fill="#FF0636" stroke="#000000" stroke-width="2" stroke-miterlimit="10" d="M105.673,197.25
		c3.178-5.484,3.821-10.543,1.438-11.299c-2.385-0.756-6.893,3.077-10.071,8.562c-3.178,5.483-3.821,10.542-1.438,11.298
		C99.313,206.988,104.698,198.932,105.673,197.25z"/>
	<path fill="#FFFFFF" stroke="#000000" stroke-miterlimit="10" d="M102.272,194.495c1.411-2.436,1.696-4.681,0.638-5.017
		c-1.059-0.336-3.06,1.366-4.471,3.801s-1.697,4.681-0.639,5.017C99.449,198.818,101.84,195.241,102.272,194.495z"/>
	<line fill="none" stroke="#000000" stroke-width="4" stroke-miterlimit="10" x1="73.156" y1="170.844" x2="102.355" y2="193.882"/>
</g>
<g id="Layer_7">
	<path fill="#FF0636" stroke="#000000" stroke-width="2" stroke-miterlimit="10" d="M85.479,127.242
		c-0.005,0.002,3.773,6.389,8.957,8.761c2.096,0.959,12.068,6.402,14.114,1.666c0,0,2.25-8.38-5.782-12.457
		C94.985,121.262,90.312,125.125,85.479,127.242z"/>
	<path fill="none" stroke="#000000" stroke-width="2" stroke-miterlimit="10" d="M108.55,137.668c0,0-12.544-11.433-23.071-10.427"
		/>
	<line fill="none" stroke="#000000" stroke-width="3" stroke-miterlimit="10" x1="83" y1="148.974" x2="98.562" y2="130.697"/>
</g>
<g id="Layer_9">
	<g>
		<path fill="#C16C33" stroke="#000000" stroke-miterlimit="10" d="M205.973,244.201c0,0-1.971,0.481-2.613,0.335
			c-0.628-0.143-2.161-1.403-2.161-1.403l39.469-130l8.725,1.06L205.973,244.201z"/>
	</g>
	<polygon fill="#C16C33" stroke="#000000" stroke-width="3" stroke-miterlimit="10" points="316.645,143.319 309.875,141 
		280.125,136.25 256.997,128.622 228.743,122.503 220.958,120.667 207,118 185.127,112.48 176.224,110.388 176.594,108.05 
		178.625,107.708 176.755,107.029 177.458,102.583 181.5,92.542 181.5,88.583 181.375,85.625 185.5,72 185.812,60.375 189.625,45.5 
		201.688,45.5 189.688,40.312 194.781,31 195.999,19.562 206.646,22.625 237.25,30.5 261.324,34.25 279.625,41 309.125,47.875 
		321.735,50.586 335.735,53.957 335.225,60.048 332.625,66.5 332.351,73.414 330.75,80.859 326.625,92.75 323.597,114.133 
		321.875,119.75 308.536,118.18 321.463,124.899 318.127,139.579 	"/>
	<path fill="#FFFFFF" stroke="#000000" stroke-width="3" stroke-miterlimit="10" d="M330.75,75.375"/>
	<polyline fill="none" stroke="#000000" stroke-miterlimit="10" points="181.204,89.086 199.5,94.5 217.285,98.706 235.5,101.917 
		253.705,106.745 272.1,109.926 290.153,114.701 307.75,117 	"/>
	<polyline fill="none" stroke="#000000" stroke-miterlimit="10" points="205.518,46.177 215.217,48.58 225.024,50.54 
		234.566,53.599 244.17,56.415 253.833,58.667 263.854,60.713 272.255,62.582 283.283,64.731 292.613,68.263 302.499,70.332 
		312.355,72.24 321.634,76.29 331.727,77.1 	"/>
	<text transform="matrix(0.8467 0.2039 -0.2102 0.9777 206.6914 87.418)"><tspan x="0" y="0" fill="#FF0D0D" stroke="#EF975B" stroke-miterlimit="10" font-family="'Stencil'" font-size="52">Ak</tspan><tspan x="70.357" y="0" fill="#FF0D0D" stroke="#EF975B" stroke-miterlimit="10" font-family="'Stencil'" font-size="52">h</tspan></text>
</g>
<g id="Layer_4">
	<path fill="#FFFF2E" stroke="#000000" stroke-width="3" stroke-miterlimit="10" d="M88.796,141.46c0,0-19.431-2.844-27.962,9.479
		s-37.915,60.189-37.915,60.189s29.383-8.53,50.237-31.753S98.748,164.209,88.796,141.46z"/>
	<path fill="none" stroke="#000000" stroke-width="2" stroke-miterlimit="10" d="M76.265,154.478
		c-2.88,3.572,4.854-4.677-0.265-6.383c-4.266-1.422-5.665,2.202-5.665,2.202s1.54-8.172-2.784-5.38"/>
	
		<line fill="none" stroke="#000000" stroke-width="3" stroke-linecap="round" stroke-miterlimit="10" x1="61.1" y1="157.365" x2="57.308" y2="164"/>
	
		<line fill="none" stroke="#000000" stroke-width="3" stroke-linecap="round" stroke-miterlimit="10" x1="65.1" y1="161.365" x2="61.308" y2="168"/>
</g>
<g id="Layer_11">
</g>
</svg>
